<svg width="181" height="184" viewBox="0 0 181 184" fill="none" xmlns="http://www.w3.org/2000/svg">
<path fill-rule="evenodd" clip-rule="evenodd" d="M90.5 2.49989C88.403 3.87849 88.07 5.54519 89.5 7.49989C89.44 8.04299 89.107 8.37629 88.5 8.49989C86.501 7.49229 84.834 6.15889 83.5 4.49989C84.167 3.83319 84.833 3.16659 85.5 2.49989C87.284 1.27999 88.95 1.27999 90.5 2.49989Z" fill="#8E7460"/>
<path fill-rule="evenodd" clip-rule="evenodd" d="M90.5002 2.5C91.1672 2.5 91.8332 2.5 92.5002 2.5C92.8332 3.1667 93.1672 3.8333 93.5002 4.5C93.0562 5.8185 91.7232 6.8185 89.5002 7.5C88.0702 5.5453 88.4032 3.8786 90.5002 2.5Z" fill="#5E4647"/>
<path fill-rule="evenodd" clip-rule="evenodd" d="M62.5 0.5C60.0592 1.709 58.0592 3.3757 56.5 5.5C47.6776 9.4101 39.6776 14.5768 32.5 21C31.552 21.4828 30.552 21.6495 29.5 21.5C38.725 11.7203 49.725 4.7203 62.5 0.5Z" fill="#D3C0C6"/>
<path fill-rule="evenodd" clip-rule="evenodd" d="M77.5 0.5C81.833 0.5 86.167 0.5 90.5 0.5C94.198 0.5524 97.865 0.8857 101.5 1.5C98.713 2.4767 95.713 2.81 92.5 2.5C91.833 2.5 91.167 2.5 90.5 2.5C88.95 1.2801 87.284 1.2801 85.5 2.5C65.931 3.4593 49.2643 10.7926 35.5 24.5C32.2026 27.296 29.0359 30.296 26 33.5C25.2888 35.367 25.7888 36.867 27.5 38C25.6199 37.49 23.7866 37.657 22 38.5C20.5186 41.11 19.3519 43.777 18.5 46.5C17.3478 47.625 16.3478 47.625 15.5 46.5C17.317 42.199 19.6503 38.199 22.5 34.5C25.8049 30.859 29.1383 27.192 32.5 23.5C45.228 11.303 60.228 3.6364 77.5 0.5Z" fill="#D1D5C5"/>
<path fill-rule="evenodd" clip-rule="evenodd" d="M83.5 4.49995C84.834 6.15895 86.501 7.49235 88.5 8.49995C89.107 8.37635 89.44 8.04305 89.5 7.49995C91.723 6.81845 93.056 5.81845 93.5 4.49995C94.675 4.28095 95.675 4.61425 96.5 5.49995C95.395 6.89235 94.061 8.05895 92.5 8.99995C96.558 9.34035 100.558 10.0071 104.5 11C103.552 11.4828 102.552 11.6495 101.5 11.5C99.833 11.5 98.167 11.5 96.5 11.5C90.347 10.3467 84.014 10.18 77.5 11C76.263 11.2321 75.263 11.7321 74.5 12.5C62.208 14.646 51.5414 19.9793 42.5 28.5C41.5 28.5 40.5 28.5 39.5 28.5C43.5927 24.071 48.2594 20.404 53.5 17.5C62.801 13.233 72.468 10.0664 82.5 7.99995C78.542 5.10075 78.875 3.93405 83.5 4.49995Z" fill="#B5BEA9"/>
<path fill-rule="evenodd" clip-rule="evenodd" d="M96.5 11.5004C90.409 11.2118 84.409 11.5451 78.5 12.5004C77.167 12.5004 75.833 12.5004 74.5 12.5004C75.263 11.7325 76.263 11.2325 77.5 11.0004C84.014 10.1804 90.347 10.3471 96.5 11.5004Z" fill="#888272"/>
<path fill-rule="evenodd" clip-rule="evenodd" d="M85.5 2.5C84.833 3.1667 84.167 3.8333 83.5 4.5C78.875 3.9341 78.542 5.1008 82.5 8C72.468 10.0664 62.801 13.233 53.5 17.5C53.1034 16.475 52.4368 16.3083 51.5 17C47.0264 19.9734 42.6931 23.14 38.5 26.5C37.7348 25.388 36.7348 24.721 35.5 24.5C49.2643 10.7926 65.931 3.4593 85.5 2.5Z" fill="#A7BC9B"/>
<path fill-rule="evenodd" clip-rule="evenodd" d="M96.5 11.4999C98.167 11.4999 99.833 11.4999 101.5 11.4999C114.138 14.4944 125.471 20.1611 135.5 28.4999C135.179 30.0479 134.179 30.7149 132.5 30.4999C117.242 16.9082 99.242 11.2416 78.5 13.4999C78.5 13.1666 78.5 12.8332 78.5 12.4999C84.409 11.5446 90.409 11.2113 96.5 11.4999Z" fill="#2B2125"/>
<path fill-rule="evenodd" clip-rule="evenodd" d="M129.5 13.5C129.918 14.2216 130.584 14.7216 131.5 15C129.563 15.1216 128.23 15.955 127.5 17.5C127.5 18.5 127.5 19.5 127.5 20.5C122.463 17.3149 117.13 14.6483 111.5 12.5C112.737 11.7193 113.737 10.7193 114.5 9.5C112.333 8.0521 110 6.8854 107.5 6C115.266 7.0406 122.599 9.5406 129.5 13.5Z" fill="#817272"/>
<path fill-rule="evenodd" clip-rule="evenodd" d="M77.5 14.5002C77.5 13.8335 77.833 13.5002 78.5 13.5002C99.242 11.2419 117.242 16.9085 132.5 30.5002C132.062 31.5062 131.396 31.5062 130.5 30.5002C115.161 18.7249 97.827 14.0582 78.5 16.5002C80.631 15.6864 82.964 15.1864 85.5 15.0002C82.854 14.5028 80.187 14.3361 77.5 14.5002Z" fill="#796257"/>
<path fill-rule="evenodd" clip-rule="evenodd" d="M74.5 12.5C75.833 12.5 77.167 12.5 78.5 12.5C78.5 12.8333 78.5 13.1667 78.5 13.5C77.833 13.5 77.5 13.8333 77.5 14.5C65.1 16.5351 54.1003 21.5351 44.5 29.5C43.5084 29.672 42.8417 29.338 42.5 28.5C51.5414 19.9793 62.208 14.646 74.5 12.5Z" fill="#4C3C3F"/>
<path fill-rule="evenodd" clip-rule="evenodd" d="M30.5 14.5001C28.5 17.1668 26.1667 19.5001 23.5 21.5001C23.5654 21.0619 23.3988 20.7285 23 20.5001C17.5437 26.1101 12.7104 32.1101 8.5 38.5001C11.9681 30.6971 16.9681 24.0301 23.5 18.5001C25.2959 17.2074 26.9625 15.7074 28.5 14.0001C29.4368 13.3084 30.1034 13.4751 30.5 14.5001Z" fill="#754A53"/>
<path fill-rule="evenodd" clip-rule="evenodd" d="M78.5 16.5003C97.827 14.0583 115.161 18.725 130.5 30.5003C129.791 31.4043 128.791 31.7373 127.5 31.5003C113.357 20.2294 97.357 15.896 79.5 18.5003C78.167 18.5003 76.833 18.5003 75.5 18.5003C74.508 18.6719 73.842 18.3385 73.5 17.5003C75.042 16.6996 76.708 16.3663 78.5 16.5003Z" fill="#1F1818"/>
<path fill-rule="evenodd" clip-rule="evenodd" d="M79.5 18.4998C97.357 15.8955 113.357 20.2289 127.5 31.4998C127.167 31.4998 126.833 31.4998 126.5 31.4998C112.964 22.2132 97.964 18.2132 81.5 19.4998C81.158 18.6616 80.492 18.3282 79.5 18.4998Z" fill="#8A725E"/>
<path fill-rule="evenodd" clip-rule="evenodd" d="M75.5 18.4998C76.833 18.4998 78.167 18.4998 79.5 18.4998C80.492 18.3282 81.158 18.6616 81.5 19.4998C70.235 21.1428 59.9018 25.1428 50.5 31.4998C49.6043 32.5058 48.9377 32.5058 48.5 31.4998C56.6099 25.2778 65.61 20.9446 75.5 18.4998Z" fill="#B19E8D"/>
<path fill-rule="evenodd" clip-rule="evenodd" d="M81.5 19.5005C97.964 18.2139 112.964 22.2139 126.5 31.5005C126.833 32.1675 127.167 32.8335 127.5 33.5005C125.863 34.2185 124.197 34.3845 122.5 34.0005C115.11 29.1395 107.11 25.6395 98.5 23.5005C92.013 22.3465 85.346 22.1799 78.5 23.0005C77.263 23.2325 76.263 23.7325 75.5 24.5005C69.577 25.1385 64.244 27.1385 59.5 30.5005C57.4484 31.7105 55.2818 32.7105 53 33.5005C51.6244 33.3165 50.7911 32.6495 50.5 31.5005C59.9018 25.1435 70.235 21.1435 81.5 19.5005Z" fill="#1C1516"/>
<path fill-rule="evenodd" clip-rule="evenodd" d="M98.5 23.4999C92.31 23.1769 86.31 23.5099 80.5 24.4999C78.833 24.4999 77.167 24.4999 75.5 24.4999C76.263 23.7319 77.263 23.2319 78.5 22.9999C85.346 22.1793 92.013 22.3459 98.5 23.4999Z" fill="#543E36"/>
<path fill-rule="evenodd" clip-rule="evenodd" d="M73.5 17.5C73.842 18.3382 74.508 18.6716 75.5 18.5C65.61 20.9448 56.6099 25.278 48.5 31.5C47.5084 31.672 46.8417 31.338 46.5 30.5C54.3083 23.763 63.308 19.4297 73.5 17.5Z" fill="#423336"/>
<path fill-rule="evenodd" clip-rule="evenodd" d="M75.5 24.5C70.445 27.076 65.112 29.076 59.5 30.5C64.244 27.138 69.577 25.138 75.5 24.5Z" fill="#856F5D"/>
<path fill-rule="evenodd" clip-rule="evenodd" d="M77.5 14.4995C80.187 14.3354 82.854 14.5021 85.5 14.9995C82.964 15.1857 80.631 15.6857 78.5 16.4995C76.708 16.3655 75.042 16.6988 73.5 17.4995C63.308 19.4292 54.3083 23.7625 46.5 30.4995C45.5084 30.6715 44.8417 30.3375 44.5 29.4995C54.1003 21.5346 65.1 16.5346 77.5 14.4995Z" fill="#BAAC9C"/>
<path fill-rule="evenodd" clip-rule="evenodd" d="M75.5 24.4996C77.167 24.4996 78.833 24.4996 80.5 24.4996C85.844 24.3336 91.177 24.5006 96.5 24.9996C91.649 25.1736 86.982 25.6736 82.5 26.4996C80.435 26.5166 78.435 26.8496 76.5 27.4996C70.534 28.6486 64.868 30.6486 59.5 33.4996C58.7611 33.6306 58.0944 33.4636 57.5 32.9996C58.3805 32.2916 59.0472 31.4576 59.5 30.4996C65.112 29.0756 70.445 27.0756 75.5 24.4996Z" fill="#B6B2A6"/>
<path fill-rule="evenodd" clip-rule="evenodd" d="M80.5 24.5001C86.31 23.5101 92.31 23.1771 98.5 23.5001C107.11 25.6391 115.11 29.1391 122.5 34.0001C124.197 34.3841 125.863 34.2181 127.5 33.5001C125.881 35.4611 123.714 36.7941 121 37.5001C120.722 36.5841 120.222 35.9181 119.5 35.5001C108.363 28.0681 96.029 25.0681 82.5 26.5001C86.982 25.6741 91.649 25.1741 96.5 25.0001C91.177 24.5011 85.844 24.3341 80.5 24.5001Z" fill="#867069"/>
<path fill-rule="evenodd" clip-rule="evenodd" d="M82.5 26.5003C96.029 25.0683 108.363 28.0683 119.5 35.5003C116.46 37.3463 113.127 38.6793 109.5 39.5003C106.702 38.9003 104.035 37.9003 101.5 36.5003C99.844 38.0223 98.677 37.6893 98 35.5003C97.107 36.0813 96.107 36.4153 95 36.5003C88.279 34.9583 81.446 33.9583 74.5 33.5003C70.523 34.5543 66.523 35.0543 62.5 35.0003C66.886 31.8283 71.552 29.3283 76.5 27.5003C78.435 26.8503 80.435 26.5173 82.5 26.5003Z" fill="#11090C"/>
<path fill-rule="evenodd" clip-rule="evenodd" d="M70.5 55.5C72.546 57.279 74.713 58.946 77 60.5C77.667 61.167 77.667 61.833 77 62.5C70.769 68.262 63.936 72.929 56.5 76.5C52.6528 76.894 48.9861 77.894 45.5 79.5C37.9404 82.28 34.2737 79.613 34.5 71.5C33.675 70.614 32.675 70.281 31.5 70.5C31.3832 72.484 32.0499 74.15 33.5 75.5C33.1667 76.167 32.8333 76.833 32.5 77.5C34.3722 79.535 36.0389 81.702 37.5 84C34.3227 92.697 31.656 101.53 29.5 110.5C27.9413 103.734 27.1079 96.734 27 89.5C26.5008 94.155 26.3342 98.821 26.5 103.5C25.8362 101.19 25.5029 98.69 25.5 96C25.9871 88.091 26.9871 80.258 28.5 72.5C29.3909 71.739 30.0576 70.739 30.5 69.5C31.325 68.614 32.325 68.281 33.5 68.5C34.0388 60.69 32.7055 53.356 29.5 46.5C29.1667 45.5 28.5 44.833 27.5 44.5C27.8333 43.833 28.1667 43.167 28.5 42.5C29.2216 42.918 29.7216 43.584 30 44.5C30.3333 44.167 30.6667 43.833 31 43.5C32.1775 38.775 34.0108 34.441 36.5 30.5C47.8517 38.858 59.185 47.191 70.5 55.5Z" fill="#3F3030"/>
<path fill-rule="evenodd" clip-rule="evenodd" d="M151.5 45.5C151.5 45.833 151.5 46.167 151.5 46.5C150.258 48.389 150.258 50.389 151.5 52.5C150.833 52.5 150.5 52.833 150.5 53.5C149.833 53.833 149.167 54.167 148.5 54.5C149.323 52.545 149.49 50.545 149 48.5C145.885 54.903 145.051 61.569 146.5 68.5C148.957 66.999 148.957 65.332 146.5 63.5C147.154 61.885 147.654 60.218 148 58.5C152.414 66.58 154.914 75.247 155.5 84.5C155.662 86.527 155.495 88.527 155 90.5C153.842 85.205 153.009 79.872 152.5 74.5C151.5 74.5 150.5 74.5 149.5 74.5C148.62 69.711 146.786 69.378 144 73.5C143.517 74.448 143.351 75.448 143.5 76.5C143.116 79.05 141.616 80.383 139 80.5C133.79 79.262 128.623 77.928 123.5 76.5C115.107 73.116 107.774 68.116 101.5 61.5C109.852 54.81 118.186 48.143 126.5 41.5C131.797 37.884 137.131 34.218 142.5 30.5C144.864 34.556 146.864 38.89 148.5 43.5C149.357 44.425 150.357 45.092 151.5 45.5Z" fill="#3F3030"/>
<path fill-rule="evenodd" clip-rule="evenodd" d="M76.5 27.5C71.552 29.328 66.886 31.828 62.5 35C66.523 35.054 70.523 34.554 74.5 33.5C81.446 33.958 88.279 34.958 95 36.5C96.107 36.415 97.107 36.081 98 35.5C98.677 37.689 99.844 38.022 101.5 36.5C104.035 37.9 106.702 38.9 109.5 39.5C106.713 40.477 103.713 40.81 100.5 40.5C97.647 39.123 94.647 37.956 91.5 37C82.484 36.401 73.484 36.568 64.5 37.5C61.903 37.357 59.5692 36.523 57.5 35C58.4158 34.722 59.0825 34.222 59.5 33.5C64.868 30.649 70.534 28.649 76.5 27.5Z" fill="#26191C"/>
<path fill-rule="evenodd" clip-rule="evenodd" d="M100.5 40.4998C91.167 40.4998 81.833 40.4998 72.5 40.4998C69.557 40.0198 66.89 39.0198 64.5 37.4998C73.484 36.5678 82.484 36.4008 91.5 36.9998C94.647 37.9558 97.647 39.1228 100.5 40.4998Z" fill="#392927"/>
<path fill-rule="evenodd" clip-rule="evenodd" d="M53.4998 17.5001C48.2592 20.4041 43.5925 24.0711 39.4998 28.5001C36.6753 28.0811 34.5086 29.0811 32.9998 31.5001C32.4217 35.6501 30.9217 39.3161 28.4998 42.5001C28.1665 43.1671 27.8331 43.8331 27.4998 44.5001C22.6056 52.3971 18.6056 60.7301 15.4998 69.5001C14.1427 70.5901 13.1427 71.9241 12.4998 73.5001C14.0702 67.1181 16.0702 60.7851 18.4998 54.5001C16.608 51.9561 14.7746 51.9561 12.9998 54.5001C12.5355 53.9061 12.3688 53.2391 12.4998 52.5001C12.3282 51.5081 12.6616 50.8421 13.4998 50.5001C15.8357 51.3431 18.1691 51.8431 20.4998 52.0001C22.1795 49.1891 21.5129 47.3561 18.4998 46.5001C19.3517 43.7771 20.5184 41.1101 21.9998 38.5001C23.7864 37.6571 25.6197 37.4901 27.4998 38.0001C25.7886 36.8671 25.2886 35.3671 25.9998 33.5001C29.0357 30.2961 32.2024 27.2961 35.4998 24.5001C36.7346 24.7211 37.7346 25.3881 38.4998 26.5001C42.6929 23.1401 47.0262 19.9735 51.4998 17.0001C52.4366 16.3084 53.1032 16.4751 53.4998 17.5001Z" fill="#959C87"/>
<path fill-rule="evenodd" clip-rule="evenodd" d="M39.5 28.5C40.5 28.5 41.5 28.5 42.5 28.5C42.8417 29.338 43.5084 29.672 44.5 29.5C44.8417 30.338 45.5084 30.672 46.5 30.5C46.8417 31.338 47.5084 31.672 48.5 31.5C48.9377 32.506 49.6043 32.506 50.5 31.5C50.7911 32.649 51.6244 33.316 53 33.5C55.2818 32.71 57.4484 31.71 59.5 30.5C59.0472 31.458 58.3805 32.292 57.5 33C58.0944 33.464 58.7611 33.631 59.5 33.5C59.0825 34.222 58.4158 34.722 57.5 35C59.5692 36.523 61.903 37.357 64.5 37.5C66.89 39.02 69.557 40.02 72.5 40.5C79.989 41.329 87.656 41.829 95.5 42C96.223 44.811 98.056 47.311 101 49.5C101.419 48.328 102.085 47.328 103 46.5C103.667 47.833 104.333 47.833 105 46.5C104.843 48.831 104.343 51.164 103.5 53.5C102.417 53.461 101.417 53.127 100.5 52.5C99.667 53.5 98.833 54.5 98 55.5C95.333 52.833 92.667 50.167 90 47.5C87 50.5 84 53.5 81 56.5C80.333 55.167 79.667 53.833 79 52.5C77.636 53.696 76.136 54.696 74.5 55.5C72.946 54.628 71.612 54.628 70.5 55.5C59.185 47.191 47.8517 38.858 36.5 30.5C34.0108 34.441 32.1775 38.775 31 43.5C30.6667 43.833 30.3333 44.167 30 44.5C29.7216 43.584 29.2216 42.918 28.5 42.5C30.9219 39.316 32.4219 35.65 33 31.5C34.5088 29.081 36.6755 28.081 39.5 28.5Z" fill="#7C6363"/>
<path fill-rule="evenodd" clip-rule="evenodd" d="M146.5 27.5C145.963 30.089 146.463 32.756 148 35.5C148.837 33.993 150.004 33.493 151.5 34C150.101 35.062 149.101 36.395 148.5 38C149.391 40.279 150.391 42.446 151.5 44.5C151.5 44.833 151.5 45.167 151.5 45.5C150.357 45.092 149.357 44.425 148.5 43.5C146.864 38.89 144.864 34.556 142.5 30.5C137.131 34.218 131.797 37.884 126.5 41.5C121.586 43.3 117.253 46.134 113.5 50C112.007 51.368 110.507 51.535 109 50.5C107.333 51.833 105.667 53.167 104 54.5C103.601 54.272 103.435 53.938 103.5 53.5C104.343 51.164 104.843 48.831 105 46.5C104.333 47.833 103.667 47.833 103 46.5C102.085 47.328 101.419 48.328 101 49.5C98.056 47.311 96.223 44.811 95.5 42C87.656 41.829 79.989 41.329 72.5 40.5C81.833 40.5 91.167 40.5 100.5 40.5C103.713 40.81 106.713 40.477 109.5 39.5C113.127 38.679 116.46 37.346 119.5 35.5C120.222 35.918 120.722 36.584 121 37.5C123.714 36.794 125.881 35.461 127.5 33.5C127.167 32.833 126.833 32.167 126.5 31.5C126.833 31.5 127.167 31.5 127.5 31.5C128.791 31.737 129.791 31.404 130.5 30.5C131.396 31.506 132.062 31.506 132.5 30.5C134.179 30.715 135.179 30.048 135.5 28.5C136.423 29.303 137.423 29.47 138.5 29C134.957 25.951 131.291 23.118 127.5 20.5C127.5 19.5 127.5 18.5 127.5 17.5C128.15 17.1961 128.817 16.8627 129.5 16.5C132.115 18.3521 134.781 19.1854 137.5 19C141 21.3342 144 24.168 146.5 27.5Z" fill="#725C5C"/>
<path fill-rule="evenodd" clip-rule="evenodd" d="M146.5 27.5C155.085 35.273 161.585 44.606 166 55.5C165.789 58.58 163.956 60.247 160.5 60.5C158.509 54.511 155.509 49.177 151.5 44.5C150.391 42.446 149.391 40.279 148.5 38C149.101 36.395 150.101 35.062 151.5 34C150.004 33.493 148.837 33.993 148 35.5C146.463 32.756 145.963 30.089 146.5 27.5Z" fill="#51393F"/>
<path fill-rule="evenodd" clip-rule="evenodd" d="M32.5 23.5001C29.1383 27.1921 25.8049 30.8591 22.5 34.5001C22.5654 34.0621 22.3988 33.7281 22 33.5001C19.294 35.8711 16.9606 38.5371 15 41.5001C12.435 47.0741 9.6017 52.4071 6.5 57.5001C8.3777 49.2841 12.0444 41.9511 17.5 35.5001C21.7586 31.3491 26.0919 27.1821 30.5 23.0001C31.4368 22.3084 32.1034 22.4751 32.5 23.5001Z" fill="#594345"/>
<path fill-rule="evenodd" clip-rule="evenodd" d="M8.5 38.5C6.8682 44.43 4.2015 49.764 0.5 54.5C2.1318 48.57 4.7985 43.236 8.5 38.5Z" fill="#6A4049"/>
<path fill-rule="evenodd" clip-rule="evenodd" d="M15.5 46.5C16.3478 47.625 17.3478 47.625 18.5 46.5C21.5131 47.356 22.1797 49.189 20.5 52C18.1693 51.843 15.8359 51.343 13.5 50.5C13.6596 48.847 14.3263 47.514 15.5 46.5Z" fill="#62503E"/>
<path fill-rule="evenodd" clip-rule="evenodd" d="M126.5 41.5C118.186 48.143 109.852 54.81 101.5 61.5C107.774 68.116 115.107 73.116 123.5 76.5C122.391 77.29 121.058 77.79 119.5 78C122.953 81.016 123.786 84.516 122 88.5C118.003 88.781 113.836 89.281 109.5 90C107.35 91.192 106.683 92.692 107.5 94.5C105.265 94.205 103.265 94.539 101.5 95.5C99.255 94.172 98.922 92.339 100.5 90C120.525 87.121 120.191 85.954 99.5 86.5C99.334 80.158 99.5 73.825 100 67.5C100.5 67 101 66.5 101.5 66C98.973 62.894 97.14 63.061 96 66.5C94 64.5 92 62.5 90 60.5C87.667 62.833 85.333 65.167 83 67.5C82.667 66.167 82.333 64.833 82 63.5C81.586 63.957 81.086 64.291 80.5 64.5C79.671 69.467 79.171 74.467 79 79.5C77.5 81 76 82.5 74.5 84C75.167 84.667 75.833 85.333 76.5 86C73.949 86.002 71.949 86.836 70.5 88.5C66.154 88.666 61.821 88.499 57.5 88C56.7069 86.915 56.0402 85.748 55.5 84.5C56.9213 81.991 58.5879 79.657 60.5 77.5C59.2135 77.524 57.8802 77.19 56.5 76.5C63.936 72.929 70.769 68.262 77 62.5C77.667 61.833 77.667 61.167 77 60.5C74.713 58.946 72.546 57.279 70.5 55.5C71.612 54.628 72.946 54.628 74.5 55.5C76.136 54.696 77.636 53.696 79 52.5C79.667 53.833 80.333 55.167 81 56.5C84 53.5 87 50.5 90 47.5C92.667 50.167 95.333 52.833 98 55.5C98.833 54.5 99.667 53.5 100.5 52.5C101.417 53.127 102.417 53.461 103.5 53.5C103.435 53.938 103.601 54.272 104 54.5C105.667 53.167 107.333 51.833 109 50.5C110.507 51.535 112.007 51.368 113.5 50C117.253 46.134 121.586 43.3 126.5 41.5Z" fill="#8A7070"/>
<path fill-rule="evenodd" clip-rule="evenodd" d="M29.5001 46.5C32.7056 53.356 34.0389 60.69 33.5001 68.5C32.3251 68.281 31.3251 68.614 30.5001 69.5C30.0577 70.739 29.391 71.739 28.5001 72.5C28.7846 70.585 28.4512 68.919 27.5001 67.5C28.6335 64.729 29.6335 61.896 30.5001 59C30.3334 58.167 30.1668 57.333 30.0001 56.5C29.7217 57.416 29.2217 58.082 28.5001 58.5C28.5001 57.833 28.1668 57.5 27.5001 57.5C28.9095 55.695 29.4095 53.695 29.0001 51.5C24.1751 58.483 21.0085 66.15 19.5001 74.5C18.5656 73.432 18.2323 72.099 18.5001 70.5C21.0881 61.992 24.7547 53.992 29.5001 46.5Z" fill="#74625C"/>
<path fill-rule="evenodd" clip-rule="evenodd" d="M161.5 55.5C163.465 55.948 163.798 56.948 162.5 58.5C161.614 57.675 161.281 56.675 161.5 55.5Z" fill="#C7B1A7"/>
<path fill-rule="evenodd" clip-rule="evenodd" d="M150.5 53.5C162.686 77 163.686 101 153.5 125.5C149.016 136.142 142.349 145.142 133.5 152.5C132.662 152.158 132.328 151.492 132.5 150.5C135.959 147.585 138.959 144.252 141.5 140.5C156.739 120.57 161.573 98.236 156 73.5C154.041 66.921 151.541 60.588 148.5 54.5C149.167 54.167 149.833 53.833 150.5 53.5Z" fill="#181211"/>
<path fill-rule="evenodd" clip-rule="evenodd" d="M162.5 64.4998C162.5 64.1668 162.5 63.8328 162.5 63.4998C163.789 60.6778 165.789 60.0108 168.5 61.4998C166.757 63.0378 164.757 64.0378 162.5 64.4998Z" fill="#422830"/>
<path fill-rule="evenodd" clip-rule="evenodd" d="M27.4998 57.5C21.8607 67.755 18.8607 78.755 18.4998 90.5C17.3408 85.207 17.6741 79.873 19.4998 74.5C21.0082 66.15 24.1748 58.483 28.9998 51.5C29.4092 53.695 28.9092 55.695 27.4998 57.5Z" fill="#322428"/>
<path fill-rule="evenodd" clip-rule="evenodd" d="M12.4998 52.5C12.3688 53.239 12.5355 53.906 12.9998 54.5C14.7746 51.956 16.608 51.956 18.4998 54.5C16.0702 60.785 14.0702 67.118 12.4998 73.5C10.948 72.378 9.28142 71.878 7.49982 72C6.16552 74.66 5.33222 77.494 4.99982 80.5C4.50982 79.207 4.34312 77.873 4.49982 76.5C5.38972 67.83 8.05642 59.83 12.4998 52.5Z" fill="#838C72"/>
<path fill-rule="evenodd" clip-rule="evenodd" d="M27.5 67.5C26.3263 68.514 25.6596 69.847 25.5 71.5C24.8333 71.5 24.5 71.167 24.5 70.5C25.2702 66.297 26.6035 62.297 28.5 58.5C29.2216 58.082 29.7216 57.416 30 56.5C30.1667 57.333 30.3333 58.167 30.5 59C29.6334 61.896 28.6334 64.729 27.5 67.5Z" fill="#1B1413"/>
<path fill-rule="evenodd" clip-rule="evenodd" d="M151.5 46.5C162.909 63.816 167.076 82.816 164 103.5C163.278 110.053 161.778 116.386 159.5 122.5C158.549 121.081 158.216 119.415 158.5 117.5C162.969 99.336 162.469 81.336 157 63.5C155.153 59.807 153.32 56.14 151.5 52.5C150.258 50.389 150.258 48.389 151.5 46.5Z" fill="#160F11"/>
<path fill-rule="evenodd" clip-rule="evenodd" d="M174.5 57.5C177.013 61.378 178.346 65.711 178.5 70.5C178.5 72.5 178.5 74.5 178.5 76.5C177.5 74.5 176.5 72.5 175.5 70.5C175.414 66.143 175.08 61.81 174.5 57.5Z" fill="#513640"/>
<path fill-rule="evenodd" clip-rule="evenodd" d="M15.4998 69.5C14.8658 73.373 13.8658 77.039 12.4998 80.5C11.7782 80.918 11.2782 81.584 10.9998 82.5C10.3581 86.491 9.85815 90.491 9.49985 94.5C5.94365 94.275 5.61035 95.108 8.49985 97C7.93235 99.952 6.43235 101.118 3.99985 100.5C3.80895 102.708 3.30895 104.708 2.49985 106.5C2.33345 98.16 2.50015 89.827 2.99985 81.5C3.19795 79.618 3.69795 77.952 4.49985 76.5C4.34315 77.873 4.50985 79.207 4.99985 80.5C5.33225 77.494 6.16555 74.66 7.49985 72C9.28145 71.878 10.948 72.378 12.4998 73.5C13.1427 71.924 14.1427 70.59 15.4998 69.5Z" fill="#918A78"/>
<path fill-rule="evenodd" clip-rule="evenodd" d="M101.5 95.5C101.66 97.153 102.326 98.486 103.5 99.5C103.5 100.167 103.5 100.833 103.5 101.5C100.462 103.112 97.629 105.112 95 107.5C95.617 105.905 95.284 104.572 94 103.5C92.667 104.833 91.333 106.167 90 107.5C88.333 105.833 86.667 104.167 85 102.5C84.781 103.938 84.281 105.271 83.5 106.5C81.623 105.197 79.957 103.697 78.5 102C77.552 101.517 76.552 101.351 75.5 101.5C76.472 100.601 77.138 99.434 77.5 98C76.992 96.107 75.992 94.607 74.5 93.5C75.93 93.421 77.264 93.754 78.5 94.5C79.614 93.277 79.781 91.944 79 90.5C76.061 89.872 73.228 89.205 70.5 88.5C71.949 86.836 73.949 86.002 76.5 86C75.833 85.333 75.167 84.667 74.5 84C76 82.5 77.5 81 79 79.5C79.171 74.467 79.671 69.467 80.5 64.5C81.086 64.291 81.586 63.957 82 63.5C82.333 64.833 82.667 66.167 83 67.5C85.333 65.167 87.667 62.833 90 60.5C92 62.5 94 64.5 96 66.5C97.14 63.061 98.973 62.894 101.5 66C101 66.5 100.5 67 100 67.5C99.5 73.825 99.334 80.158 99.5 86.5C120.191 85.954 120.525 87.121 100.5 90C98.922 92.339 99.255 94.172 101.5 95.5Z" fill="#9A8282"/>
<path fill-rule="evenodd" clip-rule="evenodd" d="M56.4998 76.5C57.88 77.19 59.2133 77.524 60.4998 77.5C58.5877 79.657 56.9211 81.991 55.4998 84.5C56.04 85.748 56.7067 86.915 57.4998 88C61.8208 88.499 66.1538 88.666 70.4998 88.5C73.2278 89.205 76.0608 89.872 78.9998 90.5C79.7808 91.944 79.6138 93.277 78.4998 94.5C77.2638 93.754 75.9298 93.421 74.4998 93.5C73.4998 93.5 72.4998 93.5 71.4998 93.5C71.1938 96.385 71.5268 99.052 72.4998 101.5C76.2328 106.74 80.5658 111.574 85.4998 116C84.2068 116.49 82.8728 116.657 81.4998 116.5C81.4998 117.833 81.4998 119.167 81.4998 120.5C78.8298 121.248 76.1628 122.248 73.4998 123.5C73.5738 121.589 74.5738 120.422 76.4998 120C73.9478 117.147 71.1148 114.647 67.9998 112.5C67.6668 113.167 67.3328 113.833 66.9998 114.5C65.5418 112.04 63.7088 109.873 61.4998 108C62.1668 107.333 62.8328 106.667 63.4998 106C58.6232 98.117 52.6232 91.117 45.4998 85C43.2303 84.242 41.0637 84.409 38.9998 85.5C38.2504 84.365 38.4171 83.365 39.4998 82.5C41.919 82.086 43.919 81.086 45.4998 79.5C48.9859 77.894 52.6526 76.894 56.4998 76.5Z" fill="#806868"/>
<path fill-rule="evenodd" clip-rule="evenodd" d="M123.5 76.5C128.623 77.928 133.79 79.262 139 80.5C141.616 80.383 143.116 79.05 143.5 76.5C144.5 76.5 145.5 76.5 146.5 76.5C145.581 79.089 143.914 81.089 141.5 82.5C140.71 83.609 140.21 84.942 140 86.5C138.582 84.637 136.749 84.137 134.5 85C129.333 90.167 124.167 95.333 119 100.5C117.438 102.957 116.438 105.624 116 108.5C112 111.833 108 115.167 104 118.5C103.333 119.167 103.333 119.833 104 120.5C106.757 121.603 108.924 123.269 110.5 125.5C107.222 124.059 104.056 122.392 101 120.5C94.69 119.36 88.19 119.36 81.5 120.5C81.5 119.167 81.5 117.833 81.5 116.5C82.873 116.657 84.207 116.49 85.5 116C80.566 111.574 76.233 106.74 72.5 101.5C73.5 101.5 74.5 101.5 75.5 101.5C76.552 101.351 77.552 101.517 78.5 102C79.957 103.697 81.623 105.197 83.5 106.5C84.281 105.271 84.781 103.938 85 102.5C86.667 104.167 88.333 105.833 90 107.5C91.333 106.167 92.667 104.833 94 103.5C95.284 104.572 95.617 105.905 95 107.5C97.629 105.112 100.462 103.112 103.5 101.5C105.167 101.5 106.833 101.5 108.5 101.5C108.802 98.941 108.468 96.607 107.5 94.5C106.683 92.692 107.35 91.192 109.5 90C113.836 89.281 118.003 88.781 122 88.5C123.786 84.516 122.953 81.016 119.5 78C121.058 77.79 122.391 77.29 123.5 76.5Z" fill="#826A6A"/>
<path fill-rule="evenodd" clip-rule="evenodd" d="M141.5 82.5C143.914 81.089 145.581 79.089 146.5 76.5C145.147 75.133 145.481 74.133 147.5 73.5C150.734 84.382 151.234 95.382 149 106.5C146.591 98.44 144.091 90.44 141.5 82.5Z" fill="#0E090A"/>
<path fill-rule="evenodd" clip-rule="evenodd" d="M45.5 79.4997C43.9192 81.0857 41.9192 82.0857 39.5 82.4997C38.4173 83.3647 38.2506 84.3647 39 85.4997C41.0639 84.4087 43.2305 84.2417 45.5 84.9997C52.6234 91.1167 58.6234 98.1167 63.5 106C62.833 106.667 62.167 107.333 61.5 108C63.709 109.873 65.542 112.04 67 114.5C67.333 113.833 67.667 113.167 68 112.5C71.115 114.647 73.948 117.147 76.5 120C74.574 120.422 73.574 121.589 73.5 123.5C70.968 124.596 68.635 125.929 66.5 127.5C65.508 127.328 64.842 127.662 64.5 128.5C59.4411 129.681 54.4411 131.014 49.5 132.5C45.9752 133.21 42.6418 134.21 39.5 135.5C38.5 135.5 37.5 135.5 36.5 135.5C36.7947 133.265 36.4614 131.265 35.5 129.5C33.6527 123.108 31.6527 116.775 29.5 110.5C31.656 101.53 34.3227 92.6967 37.5 83.9997C36.0389 81.7017 34.3722 79.5347 32.5 77.4997C32.8333 76.8327 33.1667 76.1667 33.5 75.4997C32.0499 74.1497 31.3832 72.4837 31.5 70.4997C32.675 70.2807 33.675 70.6137 34.5 71.4997C34.2737 79.6127 37.9404 82.2797 45.5 79.4997Z" fill="#765D5D"/>
<path fill-rule="evenodd" clip-rule="evenodd" d="M149.5 74.5C153.458 87.145 153.458 99.812 149.5 112.5C147.908 111.398 147.075 112.065 147 114.5C146.691 113.234 146.191 112.067 145.5 111C139.509 110.501 133.509 110.334 127.5 110.5C127.649 111.552 127.483 112.552 127 113.5C123.312 118.218 120.145 123.218 117.5 128.5C116.5 128.5 115.5 128.5 114.5 128.5C113.205 127.512 111.872 126.512 110.5 125.5C108.924 123.269 106.757 121.603 104 120.5C103.333 119.833 103.333 119.167 104 118.5C108 115.167 112 111.833 116 108.5C116.438 105.624 117.438 102.957 119 100.5C124.167 95.333 129.333 90.167 134.5 85C136.749 84.137 138.582 84.637 140 86.5C140.21 84.942 140.71 83.609 141.5 82.5C144.091 90.44 146.591 98.44 149 106.5C151.234 95.382 150.734 84.382 147.5 73.5C145.481 74.133 145.147 75.133 146.5 76.5C145.5 76.5 144.5 76.5 143.5 76.5C143.351 75.448 143.517 74.448 144 73.5C146.786 69.378 148.62 69.711 149.5 74.5Z" fill="#765D5C"/>
<path fill-rule="evenodd" clip-rule="evenodd" d="M169.5 61.5C171.865 65.424 173.365 69.757 174 74.5C176.781 91.275 175.615 107.608 170.5 123.5C170.904 116.478 171.571 109.478 172.5 102.5C172.167 100.167 171.833 97.833 171.5 95.5C169.929 94.691 168.262 94.357 166.5 94.5C166.912 84.995 165.912 75.662 163.5 66.5C166.394 65.744 168.394 64.077 169.5 61.5Z" fill="#4F2D35"/>
<path fill-rule="evenodd" clip-rule="evenodd" d="M178.5 70.5C179.29 71.609 179.79 72.942 180 74.5C180.826 86.008 180.659 97.341 179.5 108.5C179.827 98.319 179.494 88.319 178.5 78.5C178.5 77.833 178.5 77.167 178.5 76.5C178.5 74.5 178.5 72.5 178.5 70.5Z" fill="#845062"/>
<path fill-rule="evenodd" clip-rule="evenodd" d="M74.5 93.5C75.992 94.607 76.992 96.107 77.5 98C77.138 99.434 76.472 100.601 75.5 101.5C74.5 101.5 73.5 101.5 72.5 101.5C71.527 99.052 71.194 96.385 71.5 93.5C72.5 93.5 73.5 93.5 74.5 93.5Z" fill="#A97272"/>
<path fill-rule="evenodd" clip-rule="evenodd" d="M178.5 78.5C179.494 88.319 179.827 98.319 179.5 108.5C177.705 114.987 175.372 121.32 172.5 127.5C176.529 111.439 178.529 95.106 178.5 78.5Z" fill="#412833"/>
<path fill-rule="evenodd" clip-rule="evenodd" d="M107.5 94.5003C108.468 96.6073 108.802 98.9413 108.5 101.5C106.833 101.5 105.167 101.5 103.5 101.5C103.5 100.833 103.5 100.167 103.5 99.5003C102.326 98.4863 101.66 97.1533 101.5 95.5003C103.265 94.5393 105.265 94.2053 107.5 94.5003Z" fill="#AB7170"/>
<path fill-rule="evenodd" clip-rule="evenodd" d="M18.5 70.5C18.2322 72.099 18.5655 73.432 19.5 74.5C17.6743 79.873 17.341 85.207 18.5 90.5C18.653 96.869 18.3197 103.203 17.5 109.5C16.7321 108.737 16.2321 107.737 16 106.5C15.8333 102.667 15.6667 98.833 15.5 95C15.3275 86.549 16.3275 78.382 18.5 70.5Z" fill="#654C4C"/>
<path fill-rule="evenodd" clip-rule="evenodd" d="M151.5 52.5C153.32 56.14 155.153 59.807 157 63.5C162.469 81.336 162.969 99.336 158.5 117.5C157.359 120.254 156.025 122.921 154.5 125.5C154.167 125.5 153.833 125.5 153.5 125.5C163.686 101 162.686 77 150.5 53.5C150.5 52.833 150.833 52.5 151.5 52.5Z" fill="#81584F"/>
<path fill-rule="evenodd" clip-rule="evenodd" d="M72.5 96.5C73.833 96.5 75.167 96.5 76.5 96.5C76.5 97.5 76.5 98.5 76.5 99.5C75.167 99.5 73.833 99.5 72.5 99.5C72.5 98.5 72.5 97.5 72.5 96.5Z" fill="#D12925"/>
<path fill-rule="evenodd" clip-rule="evenodd" d="M103.5 99.5C103.5 98.5 103.5 97.5 103.5 96.5C104.833 96.5 106.167 96.5 107.5 96.5C107.5 97.5 107.5 98.5 107.5 99.5C106.167 99.5 104.833 99.5 103.5 99.5Z" fill="#D02825"/>
<path fill-rule="evenodd" clip-rule="evenodd" d="M148.5 54.5C151.541 60.588 154.041 66.921 156 73.5C161.573 98.236 156.739 120.57 141.5 140.5C141.5 140.167 141.5 139.833 141.5 139.5C152.924 122.804 157.59 104.471 155.5 84.5C154.914 75.247 152.414 66.58 148 58.5C147.654 60.218 147.154 61.885 146.5 63.5C148.957 65.332 148.957 66.999 146.5 68.5C145.051 61.569 145.885 54.903 149 48.5C149.49 50.545 149.323 52.545 148.5 54.5Z" fill="#906A5B"/>
<path fill-rule="evenodd" clip-rule="evenodd" d="M151.5 44.5C155.509 49.177 158.509 54.511 160.5 60.5C160.932 61.71 161.599 62.71 162.5 63.5C162.5 63.833 162.5 64.167 162.5 64.5C162.833 65.167 163.167 65.833 163.5 66.5C165.912 75.662 166.912 84.995 166.5 94.5C166.72 104.203 165.054 113.537 161.5 122.5C163.453 123.761 165.453 124.927 167.5 126C165.191 126.756 163.191 126.256 161.5 124.5C161.167 124.833 160.833 125.167 160.5 125.5C162.833 127 165.167 128.5 167.5 130C165.217 130.291 163.05 129.791 161 128.5C160.235 128.57 159.735 128.903 159.5 129.5C159.167 129.5 158.833 129.5 158.5 129.5C158.5 128.833 158.167 128.5 157.5 128.5C158.167 126.5 158.833 124.5 159.5 122.5C161.778 116.386 163.278 110.053 164 103.5C167.076 82.816 162.909 63.816 151.5 46.5C151.5 46.167 151.5 45.833 151.5 45.5C151.5 45.167 151.5 44.833 151.5 44.5Z" fill="#BF978F"/>
<path fill-rule="evenodd" clip-rule="evenodd" d="M149.5 74.5C150.5 74.5 151.5 74.5 152.5 74.5C153.009 79.872 153.842 85.205 155 90.5C155.495 88.527 155.662 86.527 155.5 84.5C157.59 104.471 152.924 122.804 141.5 139.5C141.167 139.5 140.833 139.5 140.5 139.5C139.292 138.766 137.959 138.433 136.5 138.5C136.5 137.833 136.5 137.167 136.5 136.5C136.5 135.833 136.5 135.167 136.5 134.5C138.5 134.833 140.5 135.167 142.5 135.5C144.232 127.637 146.566 119.97 149.5 112.5C153.458 99.812 153.458 87.145 149.5 74.5Z" fill="#462D30"/>
<path fill-rule="evenodd" clip-rule="evenodd" d="M29.5 110.5C31.6527 116.775 33.6527 123.108 35.5 129.5C33.0659 125.819 30.7326 121.486 28.5 116.5C27.9412 112.147 27.2745 107.814 26.5 103.5C26.3342 98.821 26.5008 94.155 27 89.5C27.1079 96.734 27.9413 103.734 29.5 110.5Z" fill="#1B1416"/>
<path fill-rule="evenodd" clip-rule="evenodd" d="M166.5 94.4999C168.262 94.3569 169.929 94.6909 171.5 95.4999C171.833 97.8329 172.167 100.167 172.5 102.5C171.571 109.478 170.904 116.478 170.5 123.5C169.737 127.137 168.403 130.47 166.5 133.5C166.565 133.062 166.399 132.728 166 132.5C165.252 134.332 164.252 135.999 163 137.5C162.536 136.906 162.369 136.239 162.5 135.5C162.715 133.821 162.048 132.821 160.5 132.5C160.414 131.504 160.748 130.671 161.5 130C160.906 129.536 160.239 129.369 159.5 129.5C159.735 128.903 160.235 128.57 161 128.5C163.05 129.791 165.217 130.291 167.5 130C165.167 128.5 162.833 127 160.5 125.5C160.833 125.167 161.167 124.833 161.5 124.5C163.191 126.256 165.191 126.756 167.5 126C165.453 124.927 163.453 123.761 161.5 122.5C165.054 113.537 166.72 104.203 166.5 94.4999Z" fill="#7B454E"/>
<path fill-rule="evenodd" clip-rule="evenodd" d="M33.5 110.5C39.8333 110.5 46.1667 110.5 52.5 110.5C54.5442 116.414 57.5442 121.914 61.5 127C54.673 129.247 47.8397 131.414 41 133.5C40 132.833 39 132.167 38 131.5C36.1421 125.267 34.3088 119.1 32.5 113C32.7432 112.098 33.0766 111.265 33.5 110.5Z" fill="#715656"/>
<path fill-rule="evenodd" clip-rule="evenodd" d="M149.5 112.5C146.566 119.97 144.232 127.637 142.5 135.5C140.5 135.167 138.5 134.833 136.5 134.5C129.926 132.946 123.592 130.946 117.5 128.5C120.145 123.218 123.312 118.218 127 113.5C127.483 112.552 127.649 111.552 127.5 110.5C133.509 110.334 139.509 110.501 145.5 111C146.191 112.067 146.691 113.234 147 114.5C147.075 112.065 147.908 111.398 149.5 112.5Z" fill="#715757"/>
<path fill-rule="evenodd" clip-rule="evenodd" d="M9.4998 94.4998C9.2274 101.471 9.8941 108.304 11.4998 115C10.3316 116.406 10.665 117.572 12.4998 118.5C10.8511 119.648 9.3511 120.981 7.9998 122.5C6.3479 117.594 5.0146 112.594 3.9998 107.5C3.5355 108.094 3.3688 108.761 3.4998 109.5C2.5958 108.791 2.2625 107.791 2.4998 106.5C3.3089 104.708 3.8089 102.708 3.9998 100.5C6.4323 101.118 7.9323 99.9518 8.4998 96.9998C5.6103 95.1078 5.9436 94.2748 9.4998 94.4998Z" fill="#957369"/>
<path fill-rule="evenodd" clip-rule="evenodd" d="M27.5 67.5C28.4511 68.919 28.7845 70.585 28.5 72.5C26.9871 80.258 25.9871 88.091 25.5 96C25.5029 98.69 25.8362 101.19 26.5 103.5C27.2745 107.814 27.9412 112.147 28.5 116.5C27.8121 122.647 29.1454 128.314 32.5 133.5C32.3764 134.107 32.0431 134.44 31.5 134.5C20.7144 114.321 18.7144 93.321 25.5 71.5C25.6596 69.847 26.3263 68.514 27.5 67.5Z" fill="#87665A"/>
<path fill-rule="evenodd" clip-rule="evenodd" d="M27.5 57.5C28.1667 57.5 28.5 57.833 28.5 58.5C26.6035 62.297 25.2702 66.297 24.5 70.5C21.2136 78.723 19.5469 87.39 19.5 96.5C19.8953 106.077 21.562 115.41 24.5 124.5C24.5 125.5 24.5 126.5 24.5 127.5C23.7784 127.082 23.2784 126.416 23 125.5C22.6012 125.728 22.4346 126.062 22.5 126.5C19.8545 121.22 18.1879 115.553 17.5 109.5C18.3197 103.203 18.653 96.869 18.5 90.5C18.8609 78.755 21.8609 67.755 27.5 57.5Z" fill="#A28579"/>
<path fill-rule="evenodd" clip-rule="evenodd" d="M12.4998 80.5C11.5466 95.489 13.2132 110.156 17.4998 124.5C17.4998 125.833 16.8331 126.5 15.4998 126.5C14.208 124.745 13.208 122.745 12.4998 120.5C9.92828 121.728 8.59498 123.728 8.49978 126.5C8.49978 127.167 8.16648 127.5 7.49978 127.5C6.67698 125.013 5.67698 122.679 4.49978 120.5C4.05758 116.846 3.72418 113.179 3.49978 109.5C3.36878 108.761 3.53548 108.094 3.99978 107.5C5.01458 112.594 6.34788 117.594 7.99978 122.5C9.35108 120.981 10.8511 119.648 12.4998 118.5C10.665 117.572 10.3316 116.406 11.4998 115C9.89408 108.304 9.22738 101.471 9.49978 94.5C9.85808 90.491 10.3581 86.491 10.9998 82.5C11.2782 81.584 11.7782 80.918 12.4998 80.5Z" fill="#A89890"/>
<path fill-rule="evenodd" clip-rule="evenodd" d="M27.4999 44.5C28.4999 44.833 29.1666 45.5 29.4999 46.5C24.7545 53.992 21.0879 61.992 18.4999 70.5C16.3274 78.382 15.3274 86.549 15.4999 95C15.6666 98.833 15.8332 102.667 15.9999 106.5C16.232 107.737 16.732 108.737 17.4999 109.5C18.1878 115.553 19.8544 121.22 22.4999 126.5C23.8332 129.833 25.1666 133.167 26.4999 136.5C25.6042 135.494 24.9376 135.494 24.4999 136.5C21.6482 132.796 19.3149 128.796 17.4999 124.5C13.2133 110.156 11.5467 95.489 12.4999 80.5C13.8659 77.039 14.8659 73.373 15.4999 69.5C18.6057 60.73 22.6057 52.397 27.4999 44.5Z" fill="#251A1B"/>
<path fill-rule="evenodd" clip-rule="evenodd" d="M4.5 120.5C5.6772 122.679 6.6772 125.013 7.5 127.5C8.6976 130.426 9.6976 133.426 10.5 136.5C7.1481 131.79 5.1481 126.457 4.5 120.5Z" fill="#423236"/>
<path fill-rule="evenodd" clip-rule="evenodd" d="M110.5 125.5C111.872 126.512 113.205 127.512 114.5 128.5C110.112 132.221 105.445 135.555 100.5 138.5C100.062 138.565 99.728 138.399 99.5 138C102.97 135.877 102.97 134.71 99.5 134.5C99.5 133.5 99.5 132.5 99.5 131.5C92.833 131.5 86.167 131.5 79.5 131.5C79.5 132.5 79.5 133.5 79.5 134.5C75.939 134.915 76.106 135.915 80 137.5C80.692 138.437 80.525 139.103 79.5 139.5C75.857 136.865 72.19 134.199 68.5 131.5C70.934 131.352 73.601 131.186 76.5 131C77.554 128.618 78.221 126.118 78.5 123.5C74.5 124.833 70.5 126.167 66.5 127.5C68.635 125.929 70.968 124.596 73.5 123.5C76.163 122.248 78.83 121.248 81.5 120.5C88.19 119.36 94.69 119.36 101 120.5C104.056 122.392 107.222 124.059 110.5 125.5Z" fill="#B3ADAD"/>
<path fill-rule="evenodd" clip-rule="evenodd" d="M83.5001 120.5C87.5141 120.334 91.5141 120.501 95.5001 121C97.3961 122.808 97.8961 124.975 97.0001 127.5C92.2521 128.635 87.4191 128.802 82.5001 128C81.0831 125.257 81.4161 122.757 83.5001 120.5Z" fill="#1A1616"/>
<path fill-rule="evenodd" clip-rule="evenodd" d="M68.5 131.5C67.167 130.5 65.833 129.5 64.5 128.5C64.842 127.662 65.508 127.328 66.5 127.5C70.5 126.167 74.5 124.833 78.5 123.5C78.221 126.118 77.554 128.618 76.5 131C73.601 131.186 70.934 131.352 68.5 131.5Z" fill="#A09595"/>
<path fill-rule="evenodd" clip-rule="evenodd" d="M158.5 117.5C158.216 119.415 158.549 121.081 159.5 122.5C158.833 124.5 158.167 126.5 157.5 128.5C152.439 139.894 145.105 149.561 135.5 157.5C135.062 157.565 134.728 157.399 134.5 157C137.667 153.833 140.833 150.667 144 147.5C145.559 145.783 146.392 143.783 146.5 141.5C149.692 136.45 152.358 131.117 154.5 125.5C156.025 122.921 157.359 120.254 158.5 117.5Z" fill="#322026"/>
<path fill-rule="evenodd" clip-rule="evenodd" d="M179.5 108.5C178.079 121.43 174.079 133.43 167.5 144.5C168.87 139.421 170.536 134.421 172.5 129.5C172.5 128.833 172.5 128.167 172.5 127.5C175.372 121.32 177.705 114.987 179.5 108.5Z" fill="#894D60"/>
<path fill-rule="evenodd" clip-rule="evenodd" d="M15.5 126.5C15.9612 128.55 16.6279 130.55 17.5 132.5C16.2889 133.72 16.2889 134.887 17.5 136C17 136.5 16.5 137 16 137.5C14.8455 136.257 13.5122 135.257 12 134.5C11.1249 131.599 9.9582 128.932 8.5 126.5C8.5952 123.728 9.9285 121.728 12.5 120.5C13.2082 122.745 14.2082 124.745 15.5 126.5Z" fill="#8D8178"/>
<path fill-rule="evenodd" clip-rule="evenodd" d="M114.5 128.5C115.5 128.5 116.5 128.5 117.5 128.5C123.592 130.946 129.926 132.946 136.5 134.5C136.5 135.167 136.5 135.833 136.5 136.5C133.167 139.5 129.833 142.5 126.5 145.5C127.728 142.925 129.395 140.592 131.5 138.5C131.291 137.914 130.957 137.414 130.5 137C128.5 136.333 126.5 136.333 124.5 137C115.272 142.135 105.939 147.635 96.4999 153.5C93.4999 154.167 90.4999 154.833 87.4999 155.5C87.3429 154.127 87.5099 152.793 87.9999 151.5C89.7499 149.266 91.2499 146.932 92.4999 144.5C93.5849 142.413 95.2509 141.08 97.4999 140.5C99.0269 140.573 100.027 139.906 100.5 138.5C105.445 135.555 110.112 132.221 114.5 128.5Z" fill="#0B0607"/>
<path fill-rule="evenodd" clip-rule="evenodd" d="M100.5 138.5C100.027 139.906 99.027 140.573 97.5 140.5C92.167 139.167 86.833 139.167 81.5 140.5C80.508 140.672 79.842 140.338 79.5 139.5C80.525 139.103 80.692 138.437 80 137.5C76.106 135.915 75.939 134.915 79.5 134.5C79.5 133.5 79.5 132.5 79.5 131.5C86.1669 131.5 92.833 131.5 99.5 131.5C99.5 132.5 99.5 133.5 99.5 134.5C102.97 134.71 102.97 135.877 99.5 138C99.728 138.399 100.062 138.565 100.5 138.5Z" fill="#908080"/>
<path fill-rule="evenodd" clip-rule="evenodd" d="M24.5 124.5C26.8139 129.128 29.1473 133.795 31.5 138.5C28.4316 135.378 26.0983 131.711 24.5 127.5C24.5 126.5 24.5 125.5 24.5 124.5Z" fill="#684544"/>
<path fill-rule="evenodd" clip-rule="evenodd" d="M126.5 145.5C117.349 153.404 106.682 158.071 94.5 159.5C93.391 158.71 92.058 158.21 90.5 158C93.106 157.208 95.106 155.708 96.5 153.5C105.939 147.635 115.272 142.135 124.5 137C126.5 136.333 128.5 136.333 130.5 137C130.957 137.414 131.291 137.914 131.5 138.5C129.395 140.592 127.728 142.925 126.5 145.5Z" fill="#21151A"/>
<path fill-rule="evenodd" clip-rule="evenodd" d="M28.4998 116.5C30.7324 121.486 33.0657 125.819 35.4998 129.5C36.4612 131.265 36.7945 133.265 36.4998 135.5C37.4998 135.5 38.4998 135.5 39.4998 135.5C40.1665 136.833 40.8331 138.167 41.4998 139.5C41.4652 140.404 40.9652 141.07 39.9998 141.5C38.0559 140.561 36.3892 139.227 34.9998 137.5C34.601 137.728 34.4344 138.062 34.4998 138.5C33.5114 137.205 32.5114 135.872 31.4998 134.5C32.0429 134.44 32.3762 134.107 32.4998 133.5C29.1452 128.314 27.8119 122.647 28.4998 116.5Z" fill="#5E4540"/>
<path fill-rule="evenodd" clip-rule="evenodd" d="M158.5 129.5C158.833 129.5 159.167 129.5 159.5 129.5C160.239 129.369 160.906 129.536 161.5 130C160.748 130.671 160.414 131.504 160.5 132.5C158.934 135.494 159.601 136.494 162.5 135.5C162.369 136.239 162.536 136.906 163 137.5C164.252 135.999 165.252 134.332 166 132.5C166.399 132.728 166.565 133.062 166.5 133.5C164.926 138.32 162.593 142.653 159.5 146.5C159.19 145.262 158.69 145.262 158 146.5C156.489 148.862 154.989 151.195 153.5 153.5C152.474 152.147 151.141 151.147 149.5 150.5C147.61 150.297 146.11 150.963 145 152.5C144.833 152.167 144.667 151.833 144.5 151.5C147.862 147.939 150.862 144.105 153.5 140C156.167 140.667 158.833 141.333 161.5 142C159.468 140.325 157.468 138.658 155.5 137C156.651 134.535 157.651 132.035 158.5 129.5Z" fill="#A86067"/>
<path fill-rule="evenodd" clip-rule="evenodd" d="M160.5 132.5C162.048 132.821 162.715 133.821 162.5 135.5C159.601 136.494 158.934 135.494 160.5 132.5Z" fill="#F1E3E1"/>
<path fill-rule="evenodd" clip-rule="evenodd" d="M24.5 70.5C24.5 71.167 24.8333 71.5 25.5 71.5C18.7144 93.321 20.7144 114.321 31.5 134.5C32.5116 135.872 33.5116 137.205 34.5 138.5C35.1237 140.754 36.457 142.421 38.5 143.5C61.858 169 89.191 174.167 120.5 159C124.705 156.403 128.705 153.569 132.5 150.5C132.328 151.492 132.662 152.158 133.5 152.5C129.538 156.815 124.871 160.148 119.5 162.5C86.935 176.754 58.7681 170.754 35 144.5C33.5787 142.595 32.412 140.595 31.5 138.5C29.1473 133.795 26.8139 129.128 24.5 124.5C21.562 115.41 19.8953 106.077 19.5 96.5C19.5469 87.39 21.2136 78.723 24.5 70.5Z" fill="#332223"/>
<path fill-rule="evenodd" clip-rule="evenodd" d="M81.5 140.5C86.833 139.167 92.167 139.167 97.5 140.5C95.251 141.08 93.585 142.413 92.5 144.5C91.518 145.141 90.518 145.807 89.5 146.5C88.618 145.24 87.618 144.074 86.5 143C87.996 142.493 89.163 142.993 90 144.5C91.167 143.333 92.333 142.167 93.5 141C89.514 140.501 85.514 140.334 81.5 140.5Z" fill="#66554D"/>
<path fill-rule="evenodd" clip-rule="evenodd" d="M17.5 124.5C19.315 128.796 21.6483 132.796 24.5 136.5C24.5569 137.609 24.8902 138.609 25.5 139.5C24.5354 140.721 24.702 142.054 26 143.5C34.957 155.956 46.457 165.289 60.5 171.5C60.44 172.043 60.1067 172.376 59.5 172.5C55.1667 170.333 50.8333 168.167 46.5 166C42.6438 162.643 38.6438 159.476 34.5 156.5C34.1667 156.833 33.8333 157.167 33.5 157.5C34.2427 158.182 34.9094 158.849 35.5 159.5C34.7611 159.369 34.0944 159.536 33.5 160C34.3805 160.708 35.0472 161.542 35.5 162.5C34.8826 162.611 34.3826 162.944 34 163.5C26.2546 157.08 19.9213 149.413 15 140.5C14.31 139.262 13.81 139.262 13.5 140.5C12.5 139.167 11.5 137.833 10.5 136.5C9.6976 133.426 8.6976 130.426 7.5 127.5C8.1667 127.5 8.5 127.167 8.5 126.5C9.9582 128.932 11.1249 131.599 12 134.5C13.5122 135.257 14.8455 136.257 16 137.5C16.5 137 17 136.5 17.5 136C16.2889 134.887 16.2889 133.72 17.5 132.5C16.6279 130.55 15.9612 128.55 15.5 126.5C16.8333 126.5 17.5 125.833 17.5 124.5Z" fill="#89937A"/>
<path fill-rule="evenodd" clip-rule="evenodd" d="M26.5 136.5C37.8283 153.838 53.4949 165.338 73.5 171C75.473 171.495 77.473 171.662 79.5 171.5C87.167 172.167 94.833 172.833 102.5 173.5C101.209 173.263 100.209 173.596 99.5 174.5C90.827 174.666 82.16 174.5 73.5 174C70.454 173.261 67.454 172.428 64.5 171.5C48.252 164.865 35.252 154.198 25.5 139.5C24.8902 138.609 24.5569 137.609 24.5 136.5C24.9377 135.494 25.6043 135.494 26.5 136.5Z" fill="#342529"/>
<path fill-rule="evenodd" clip-rule="evenodd" d="M25.5002 139.5C35.2522 154.198 48.2522 164.865 64.5002 171.5C63.8332 171.5 63.5002 171.833 63.5002 172.5C63.1672 172.5 62.8332 172.5 62.5002 172.5C62.1582 171.662 61.4922 171.328 60.5002 171.5C46.4572 165.289 34.9572 155.956 26.0002 143.5C24.7022 142.054 24.5356 140.721 25.5002 139.5Z" fill="#A5AF8F"/>
<path fill-rule="evenodd" clip-rule="evenodd" d="M167.5 144.5C166.274 148.62 164.274 152.287 161.5 155.5C160.272 156.306 159.272 157.306 158.5 158.5C158.238 157.022 158.571 155.689 159.5 154.5C162.201 151.041 164.868 147.708 167.5 144.5Z" fill="#905768"/>
<path fill-rule="evenodd" clip-rule="evenodd" d="M64.5002 128.5C65.8332 129.5 67.1672 130.5 68.5002 131.5C72.1902 134.199 75.8572 136.865 79.5002 139.5C79.8422 140.338 80.5082 140.672 81.5002 140.5C85.5142 140.334 89.5142 140.501 93.5002 141C92.3332 142.167 91.1672 143.333 90.0002 144.5C89.1632 142.993 87.9962 142.493 86.5002 143C87.6182 144.074 88.6182 145.24 89.5002 146.5C90.5182 145.807 91.5182 145.141 92.5002 144.5C91.2502 146.932 89.7502 149.266 88.0002 151.5C87.5102 152.793 87.3432 154.127 87.5002 155.5C90.5002 154.833 93.5002 154.167 96.5002 153.5C95.1062 155.708 93.1062 157.208 90.5002 158C92.0582 158.21 93.3912 158.71 94.5002 159.5C93.1672 159.833 91.8332 160.167 90.5002 160.5C85.9682 160.818 81.6342 160.485 77.5002 159.5C78.2632 158.732 79.2632 158.232 80.5002 158C72.1602 150.51 63.4932 143.51 54.5002 137C52.5275 136.505 50.5275 136.338 48.5002 136.5C48.4328 135.041 48.7661 133.708 49.5002 132.5C54.4413 131.014 59.4413 129.681 64.5002 128.5Z" fill="#100A0A"/>
<path fill-rule="evenodd" clip-rule="evenodd" d="M136.5 138.5C137.959 138.433 139.292 138.766 140.5 139.5C123.565 159.789 101.899 168.122 75.5 164.5C75.918 163.778 76.584 163.278 77.5 163C75.5 162.333 73.5 161.667 71.5 161C76.971 161.303 82.471 161.803 88 162.5C90.033 162.494 91.866 162.161 93.5 161.5C110.836 159.334 125.169 151.667 136.5 138.5Z" fill="#6A4344"/>
<path fill-rule="evenodd" clip-rule="evenodd" d="M49.5 132.5C48.7659 133.708 48.4326 135.041 48.5 136.5C50.5273 136.338 52.5273 136.505 54.5 137C63.493 143.51 72.16 150.51 80.5 158C79.263 158.232 78.263 158.732 77.5 159.5C75.784 159.371 74.117 159.038 72.5 158.5C73.263 157.732 74.263 157.232 75.5 157C71.851 155.171 68.518 152.837 65.5 150C59.9672 147.973 54.6339 145.973 49.5 144C51.539 146.374 53.8723 148.374 56.5 150C61.883 152.503 66.549 155.003 70.5 157.5C59.3075 153.977 49.6408 147.977 41.5 139.5C40.8333 138.167 40.1667 136.833 39.5 135.5C42.6418 134.21 45.9752 133.21 49.5 132.5Z" fill="#24181B"/>
<path fill-rule="evenodd" clip-rule="evenodd" d="M41.5002 139.5C49.641 147.977 59.3077 153.977 70.5002 157.5C70.8422 158.338 71.5082 158.672 72.5002 158.5C74.1172 159.038 75.7842 159.371 77.5002 159.5C81.6342 160.485 85.9682 160.818 90.5002 160.5C91.2092 161.404 92.2092 161.737 93.5002 161.5C91.8662 162.161 90.0332 162.494 88.0002 162.5C82.4712 161.803 76.9712 161.303 71.5002 161C73.5002 161.667 75.5002 162.333 77.5002 163C76.5842 163.278 75.9182 163.778 75.5002 164.5C60.924 161.13 48.7574 153.797 39.0002 142.5C38.6014 142.728 38.4348 143.062 38.5002 143.5C36.4572 142.421 35.1239 140.754 34.5002 138.5C34.4348 138.062 34.6014 137.728 35.0002 137.5C36.3896 139.227 38.0563 140.561 40.0002 141.5C40.9656 141.07 41.4656 140.404 41.5002 139.5Z" fill="#896257"/>
<path fill-rule="evenodd" clip-rule="evenodd" d="M146.5 141.5C146.392 143.783 145.559 145.783 144 147.5C140.833 150.667 137.667 153.833 134.5 157C134.728 157.399 135.062 157.565 135.5 157.5C132.094 161.048 128.094 163.882 123.5 166C116.684 169.078 109.684 171.578 102.5 173.5C94.833 172.833 87.167 172.167 79.5 171.5C94.322 172.959 108.322 170.292 121.5 163.5C131.071 157.598 139.404 150.264 146.5 141.5Z" fill="#4A2E35"/>
<path fill-rule="evenodd" clip-rule="evenodd" d="M153.5 125.5C153.833 125.5 154.167 125.5 154.5 125.5C152.358 131.117 149.692 136.45 146.5 141.5C139.404 150.264 131.071 157.598 121.5 163.5C121.158 162.662 120.492 162.328 119.5 162.5C124.871 160.148 129.538 156.815 133.5 152.5C142.349 145.142 149.016 136.142 153.5 125.5Z" fill="#CDA69C"/>
<path fill-rule="evenodd" clip-rule="evenodd" d="M136.5 136.5C136.5 137.167 136.5 137.833 136.5 138.5C125.169 151.667 110.836 159.334 93.5 161.5C92.209 161.737 91.209 161.404 90.5 160.5C91.833 160.167 93.167 159.833 94.5 159.5C106.682 158.071 117.349 153.404 126.5 145.5C129.833 142.5 133.167 139.5 136.5 136.5Z" fill="#A17C6F"/>
<path fill-rule="evenodd" clip-rule="evenodd" d="M149.5 150.5C151.141 151.147 152.474 152.147 153.5 153.5C149.815 157.583 146.148 161.583 142.5 165.5C141.078 166.925 139.411 167.925 137.5 168.5C137.123 166.742 136.456 165.075 135.5 163.5C140.867 159.795 145.534 155.462 149.5 150.5Z" fill="#C77886"/>
<path fill-rule="evenodd" clip-rule="evenodd" d="M24.5002 127.5C26.0985 131.711 28.4318 135.378 31.5002 138.5C32.4122 140.595 33.5789 142.595 35.0002 144.5C58.7683 170.754 86.9352 176.754 119.5 162.5C120.492 162.328 121.158 162.662 121.5 163.5C108.322 170.292 94.3222 172.959 79.5002 171.5C77.4732 171.662 75.4732 171.495 73.5002 171C53.4951 165.338 37.8285 153.838 26.5002 136.5C25.1669 133.167 23.8335 129.833 22.5002 126.5C22.4348 126.062 22.6014 125.728 23.0002 125.5C23.2786 126.416 23.7786 127.082 24.5002 127.5Z" fill="#D2B8AE"/>
<path fill-rule="evenodd" clip-rule="evenodd" d="M159.5 146.5C155.294 153.714 150.294 160.38 144.5 166.5C144.167 166.5 143.833 166.5 143.5 166.5C143.5 165.833 143.167 165.5 142.5 165.5C146.148 161.583 149.815 157.583 153.5 153.5C154.989 151.195 156.489 148.862 158 146.5C158.69 145.262 159.19 145.262 159.5 146.5Z" fill="#DCADA9"/>
<path fill-rule="evenodd" clip-rule="evenodd" d="M140.5 139.5C140.833 139.5 141.167 139.5 141.5 139.5C141.5 139.833 141.5 140.167 141.5 140.5C138.959 144.252 135.959 147.585 132.5 150.5C128.705 153.569 124.705 156.403 120.5 159C89.1912 174.167 61.8582 169 38.5002 143.5C38.4348 143.062 38.6014 142.728 39.0002 142.5C48.7574 153.797 60.924 161.13 75.5002 164.5C101.899 168.122 123.565 159.789 140.5 139.5Z" fill="#B18D7F"/>
<path fill-rule="evenodd" clip-rule="evenodd" d="M72.5 158.5C71.508 158.672 70.842 158.338 70.5 157.5C66.549 155.003 61.883 152.503 56.5 150C53.8723 148.374 51.539 146.374 49.5 144C54.6339 145.973 59.9672 147.973 65.5 150C68.518 152.837 71.851 155.171 75.5 157C74.263 157.232 73.263 157.732 72.5 158.5Z" fill="#483037"/>
<path fill-rule="evenodd" clip-rule="evenodd" d="M125.5 176.5C124.739 177.391 123.739 178.058 122.5 178.5C121.289 177.726 121.289 176.893 122.5 176C117.381 175.291 114.381 177.457 113.5 182.5C110.873 183.092 108.206 183.425 105.5 183.5C105.062 183.565 104.728 183.399 104.5 183C105.478 181.025 106.811 179.358 108.5 178C108.355 177.228 108.022 176.561 107.5 176C109.119 175.764 110.119 174.931 110.5 173.5C114.015 172.272 117.515 170.938 121 169.5C123.507 171.188 125.007 173.521 125.5 176.5Z" fill="#E0A3B1"/>
<path fill-rule="evenodd" clip-rule="evenodd" d="M89.5 178.5C90.675 178.281 91.675 178.614 92.5 179.5C90.851 180.648 89.351 181.981 88 183.5C86.968 181.973 85.801 180.64 84.5 179.5C85.919 178.549 87.585 178.216 89.5 178.5Z" fill="#825C4E"/>
<path fill-rule="evenodd" clip-rule="evenodd" d="M143.5 166.5C143.833 166.5 144.167 166.5 144.5 166.5C142.833 168.5 141.167 170.5 139.5 172.5C134.013 175.079 129.013 178.412 124.5 182.5C123.833 182.5 123.167 182.5 122.5 182.5C122.414 181.504 122.748 180.671 123.5 180C130.714 176.233 137.38 171.733 143.5 166.5Z" fill="#B6675C"/>
<path fill-rule="evenodd" clip-rule="evenodd" d="M35.5 159.5C42.2816 167.069 50.6149 172.402 60.5 175.5C61.176 174.398 61.842 173.398 62.5 172.5C62.833 172.5 63.167 172.5 63.5 172.5C62.083 178.63 62.749 178.964 65.5 173.5C65.167 175.5 64.833 177.5 64.5 179.5C53.8401 175.665 44.1734 169.998 35.5 162.5C35.0472 161.542 34.3805 160.708 33.5 160C34.0944 159.536 34.7611 159.369 35.5 159.5Z" fill="#7F806E"/>
<path fill-rule="evenodd" clip-rule="evenodd" d="M60.5 171.5C61.492 171.328 62.158 171.662 62.5 172.5C61.842 173.398 61.176 174.398 60.5 175.5C50.6149 172.402 42.2816 167.069 35.5 159.5C34.9094 158.849 34.2427 158.182 33.5 157.5C33.8333 157.167 34.1667 156.833 34.5 156.5C38.6438 159.476 42.6438 162.643 46.5 166C50.8333 168.167 55.1667 170.333 59.5 172.5C60.1067 172.376 60.44 172.043 60.5 171.5Z" fill="#8CA67E"/>
<path fill-rule="evenodd" clip-rule="evenodd" d="M15.5 157.5C24.5962 166.936 34.2628 175.603 44.5 183.5C41.2432 182.538 38.2432 181.038 35.5 179C28.3024 172.968 21.6357 166.468 15.5 159.5C15.5 158.833 15.5 158.167 15.5 157.5Z" fill="#5F5150"/>
<path fill-rule="evenodd" clip-rule="evenodd" d="M137.5 168.5C134.725 171.605 131.392 173.938 127.5 175.5C125.941 173.392 124.608 171.059 123.5 168.5C126.672 166.748 129.672 164.748 132.5 162.5C133.709 164.941 135.376 166.941 137.5 168.5Z" fill="#D48E9F"/>
</svg>
