<svg width="16" height="16" viewBox="0 0 16 16" fill="none" xmlns="http://www.w3.org/2000/svg">
<path d="M6.25 2.5625C6.0625 2.875 5.71875 3.03125 5.375 2.9375C4.6875 2.71875 3.9375 2.875 3.375 3.40625C2.84375 3.9375 2.6875 4.71875 2.90625 5.375C3 5.71875 2.84375 6.09375 2.53125 6.28125C1.90625 6.59375 1.5 7.25 1.5 8C1.5 8.78125 1.90625 9.4375 2.53125 9.75C2.84375 9.9375 3 10.2812 2.90625 10.625C2.6875 11.3125 2.875 12.0625 3.40625 12.5938C3.9375 13.125 4.6875 13.3125 5.375 13.0938C5.71875 13 6.09375 13.1562 6.25 13.4688C6.59375 14.0938 7.25 14.5 8 14.5C8.75 14.5 9.40625 14.0938 9.71875 13.4688C9.90625 13.1562 10.2812 13 10.625 13.0938C11.2812 13.3125 12.0625 13.125 12.5938 12.5938C13.125 12.0625 13.2812 11.3125 13.0625 10.625C12.9688 10.2812 13.125 9.90625 13.4375 9.75C14.0625 9.40625 14.5 8.75 14.5 8C14.5 7.25 14.0625 6.59375 13.4375 6.28125C13.125 6.09375 12.9688 5.71875 13.0625 5.375C13.2812 4.71875 13.125 3.9375 12.5938 3.40625C12.0625 2.875 11.2812 2.71875 10.625 2.9375C10.2812 3.03125 9.90625 2.875 9.71875 2.5625C9.40625 1.9375 8.75 1.5 8 1.5C7.21875 1.5 6.5625 1.9375 6.25 2.5625ZM8 0C9.09375 0 10.0938 0.53125 10.75 1.375C11.7812 1.21875 12.8438 1.5625 13.6562 2.34375C14.4375 3.15625 14.75 4.21875 14.625 5.25C15.4688 5.90625 16 6.90625 16 8C16 9.125 15.4688 10.125 14.625 10.75C14.7812 11.7812 14.4375 12.875 13.6562 13.6562C12.8438 14.4688 11.7812 14.7812 10.75 14.6562C10.0938 15.4688 9.09375 16 8 16C6.875 16 5.875 15.4688 5.25 14.6562C4.21875 14.7812 3.125 14.4688 2.34375 13.6875C1.53125 12.875 1.21875 11.8125 1.34375 10.7812C0.53125 10.125 0 9.125 0 8C0 6.90625 0.53125 5.90625 1.34375 5.25C1.21875 4.21875 1.53125 3.15625 2.3125 2.34375C3.125 1.5625 4.1875 1.25 5.21875 1.375C5.875 0.53125 6.875 0 8 0ZM11.5312 6.53125L7.53125 10.5312C7.21875 10.8438 6.75 10.8438 6.46875 10.5312L4.46875 8.53125C4.15625 8.25 4.15625 7.78125 4.46875 7.5C4.75 7.1875 5.21875 7.1875 5.53125 7.5L7 8.96875L10.4688 5.5C10.75 5.1875 11.2188 5.1875 11.5312 5.5C11.8125 5.78125 11.8125 6.25 11.5312 6.53125Z" fill="#1098FC"/>
</svg>
