<svg width="36" height="42" viewBox="0 0 36 42" fill="none" xmlns="http://www.w3.org/2000/svg">
<path d="M17.3993 1.34657C17.7712 1.13187 18.2292 1.13187 18.6011 1.34657L34.7199 10.6528C35.0917 10.8675 35.3207 11.2642 35.3207 11.6935V30.3059C35.3207 30.7352 35.0917 31.1319 34.7199 31.3466L18.6011 40.6528C18.2292 40.8675 17.7712 40.8675 17.3993 40.6528L1.28055 31.3466C0.908737 31.1319 0.679688 30.7352 0.679688 30.3059V11.6935C0.679688 11.2642 0.908737 10.8675 1.28055 10.6528L17.3993 1.34657Z" fill="url(#paint0_radial_2_13)" stroke="#848C96" stroke-width="1.20171"/>
<path d="M18 27.527L14.059 29.2389C13.5625 29.4589 12.9931 29.4589 12.4965 29.2389L9.1618 27.7883C8.4559 27.4823 8 26.7914 8 26.0283V21.9308C8 21.1333 8.4997 20.4148 9.2552 20.1329L12.5868 18.8508C12.6319 18.8645 12.6771 18.8508 12.7222 18.837V14.9808C12.7222 14.1809 13.2222 13.4645 13.9757 13.1809L17.309 11.9297C17.7535 11.763 18.2465 11.763 18.691 11.9297L22.0243 13.1809C22.7778 13.4645 23.2778 14.1809 23.2778 14.9808V18.837C23.3229 18.8508 23.3681 18.8645 23.4132 18.8508L26.7465 20.1329C27.5 20.4148 28 21.1333 28 21.9308V26.0283C28 26.7914 27.5451 27.4823 26.8368 27.7883L23.5035 29.2389C23.0069 29.4589 22.4375 29.4589 21.941 29.2389L18 27.527ZM18.0972 13.4724C18.0347 13.4487 17.934 13.4487 17.9028 13.4724L15.1806 14.4937L17.9688 15.5645L20.8194 14.4937L18.0972 13.4724ZM17.1667 20.0814V17.0151L14.3889 15.9598V19.0398L17.1667 20.0814ZM18.8333 20.0814L21.6111 19.0398V15.9598L18.8333 17.0151V20.0814ZM10.4587 21.4461L13.2778 22.5151L16.0972 21.4461L13.375 20.4251C13.3125 20.4011 13.2118 20.4011 13.1806 20.4251L10.4587 21.4461ZM14.1111 27.417L16.8889 26.207V22.9104L14.1111 23.9658V27.417ZM12.4444 23.9658L9.6667 22.9104V26.0283C9.6667 26.1383 9.7319 26.2345 9.8326 26.2792L12.4444 27.417V23.9658ZM19.9028 21.4461L22.7222 22.5151L25.5417 21.4461L22.8194 20.4251C22.7569 20.4011 22.6563 20.4011 22.625 20.4251L19.9028 21.4461ZM26.1667 26.2792C26.2674 26.2345 26.3333 26.1383 26.3333 26.0283V22.9104L23.5556 23.9658V27.417L26.1667 26.2792ZM19.1111 22.9104V26.207L21.8889 27.417V23.9658L19.1111 22.9104Z" fill="#848C96"/>
<path opacity="0.4" d="M17.166 17.0153V20.0816L14.3882 19.04V15.96L17.166 17.0153ZM21.6105 19.04L18.8327 20.0816V17.0153L21.6105 15.96V19.04ZM16.8882 26.2072L14.1105 27.4172V23.966L16.8882 22.9107V26.2072ZM9.66602 22.9107L12.4438 23.966V27.4172L9.83202 26.2794C9.73132 26.2347 9.66602 26.1385 9.66602 26.0285V22.9107ZM26.3327 22.9107V26.0285C26.3327 26.1385 26.2667 26.2347 26.166 26.2794L23.5549 27.4172V23.966L26.3327 22.9107ZM19.1105 26.2072V22.9107L21.8882 23.966V27.4172L19.1105 26.2072Z" fill="#848C96"/>
<path d="M26.4 17.0002C26.6209 17.0002 26.8 16.8211 26.8 16.6002C26.8 16.3793 26.6209 16.2002 26.4 16.2002C26.1791 16.2002 26 16.3793 26 16.6002C26 16.8211 26.1791 17.0002 26.4 17.0002Z" fill="#848C96"/>
<path d="M26.8115 11.1074C26.876 10.933 27.1226 10.933 27.1872 11.1074L27.4535 11.8272C27.4738 11.882 27.517 11.9252 27.5719 11.9455L28.2917 12.2119C28.4661 12.2764 28.4661 12.5231 28.2917 12.5876L27.5719 12.8539C27.517 12.8742 27.4738 12.9174 27.4535 12.9723L27.1872 13.6921C27.1226 13.8665 26.876 13.8665 26.8115 13.6921L26.5451 12.9723C26.5248 12.9174 26.4816 12.8742 26.4268 12.8539L25.7069 12.5876C25.5326 12.5231 25.5326 12.2764 25.7069 12.2119L26.4268 11.9455C26.4816 11.9252 26.5248 11.882 26.5451 11.8272L26.8115 11.1074Z" fill="#848C96"/>
<path d="M29.706 15.2539C29.7382 15.1667 29.8616 15.1667 29.8938 15.2539L30.054 15.6868C30.0642 15.7142 30.0858 15.7358 30.1132 15.746L30.5461 15.9062C30.6333 15.9384 30.6333 16.0618 30.5461 16.094L30.1132 16.2542C30.0858 16.2644 30.0642 16.286 30.054 16.3134L29.8938 16.7463C29.8616 16.8335 29.7382 16.8335 29.706 16.7463L29.5458 16.3134C29.5357 16.286 29.514 16.2644 29.4866 16.2542L29.0537 16.094C28.9665 16.0618 28.9665 15.9384 29.0537 15.9062L29.4866 15.746C29.514 15.7358 29.5357 15.7142 29.5458 15.6868L29.706 15.2539Z" fill="#848C96"/>
<path d="M19.3056 32.4541C19.3379 32.3669 19.4612 32.3669 19.4934 32.4541L19.6536 32.887C19.6638 32.9144 19.6854 32.936 19.7128 32.9462L20.1457 33.1064C20.2329 33.1386 20.2329 33.2619 20.1457 33.2942L19.7128 33.4544C19.6854 33.4645 19.6638 33.4861 19.6536 33.5135L19.4934 33.9465C19.4612 34.0336 19.3379 34.0336 19.3056 33.9465L19.1454 33.5135C19.1353 33.4861 19.1136 33.4645 19.0862 33.4544L18.6533 33.2942C18.5661 33.2619 18.5661 33.1386 18.6533 33.1064L19.0862 32.9462C19.1136 32.936 19.1353 32.9144 19.1454 32.887L19.3056 32.4541Z" fill="#848C96"/>
<path d="M5.6002 25.0002C5.82111 25.0002 6.0002 24.8211 6.0002 24.6002C6.0002 24.3793 5.82111 24.2002 5.6002 24.2002C5.37928 24.2002 5.2002 24.3793 5.2002 24.6002C5.2002 24.8211 5.37928 25.0002 5.6002 25.0002Z" fill="#848C96"/>
<path d="M15.1998 32.5998C15.4207 32.5998 15.5998 32.4207 15.5998 32.1998C15.5998 31.9789 15.4207 31.7998 15.1998 31.7998C14.9789 31.7998 14.7998 31.9789 14.7998 32.1998C14.7998 32.4207 14.9789 32.5998 15.1998 32.5998Z" fill="#848C96"/>
<defs>
<radialGradient id="paint0_radial_2_13" cx="0" cy="0" r="1" gradientUnits="userSpaceOnUse" gradientTransform="translate(18.0002 20.9997) rotate(90) scale(20)">
<stop stop-color="#FEFEFE"/>
<stop offset="1" stop-color="#D4D4D4"/>
</radialGradient>
</defs>
</svg>
