<svg width="125" height="16" viewBox="0 0 125 16" fill="none" xmlns="http://www.w3.org/2000/svg">
<g id="Group">
<path id="Vector" d="M104.669 8.24305C103.781 7.65996 102.801 7.24531 101.873 6.727C101.272 6.3901 100.632 6.09207 100.109 5.66446C99.2205 4.93883 99.4034 3.51348 100.331 2.89151C101.664 2.01038 103.872 2.50277 104.108 4.3039C104.108 4.34277 104.147 4.36869 104.186 4.36869H106.198C106.251 4.36869 106.29 4.32982 106.277 4.27798C106.172 3.03404 105.689 1.99742 104.8 1.33658C103.951 0.701647 102.984 0.364746 101.952 0.364746C96.6332 0.364746 96.1497 5.94953 99.0114 7.71179C99.3381 7.91911 102.148 9.31855 103.141 9.92756C104.134 10.5366 104.447 11.6509 104.016 12.5321C103.624 13.3354 102.605 13.8926 101.586 13.8278C100.475 13.7631 99.6125 13.167 99.3119 12.234C99.2597 12.0656 99.2336 11.7416 99.2336 11.5991C99.2336 11.5602 99.1944 11.5214 99.1552 11.5214H96.9729C96.9337 11.5214 96.8945 11.5602 96.8945 11.5991C96.8945 13.167 97.2866 14.0352 98.3581 14.8256C99.3642 15.5771 100.462 15.8881 101.599 15.8881C104.578 15.8881 106.12 14.2166 106.434 12.4802C106.708 10.7828 106.198 9.25376 104.669 8.24305Z" fill="white"/>
<path id="Vector_2" d="M9.91977 0.649841H8.9528H7.89436C7.85516 0.649841 7.82903 0.675757 7.81596 0.701673L6.02577 6.55857C5.99963 6.63632 5.8951 6.63632 5.86896 6.55857L4.07876 0.701673C4.0657 0.662799 4.03957 0.649841 4.00036 0.649841H2.94193H1.97496H0.668247C0.629046 0.649841 0.589844 0.688715 0.589844 0.727588V15.6808C0.589844 15.7197 0.629046 15.7586 0.668247 15.7586H2.85045C2.88966 15.7586 2.92886 15.7197 2.92886 15.6808V4.31688C2.92886 4.22618 3.05953 4.21322 3.08567 4.29097L4.88893 10.1867L5.0196 10.6014C5.03266 10.6403 5.0588 10.6532 5.098 10.6532H6.77059C6.80979 10.6532 6.83593 10.6273 6.849 10.6014L6.97967 10.1867L8.78293 4.29097C8.80906 4.20026 8.93973 4.22618 8.93973 4.31688V15.6808C8.93973 15.7197 8.97894 15.7586 9.01814 15.7586H11.2003C11.2395 15.7586 11.2787 15.7197 11.2787 15.6808V0.727588C11.2787 0.688715 11.2395 0.649841 11.2003 0.649841H9.91977Z" fill="white"/>
<path id="Vector_3" d="M71.2573 0.649841C71.2181 0.649841 71.1919 0.675757 71.1789 0.701673L69.3887 6.55857C69.3625 6.63632 69.258 6.63632 69.2319 6.55857L67.4417 0.701673C67.4286 0.662799 67.4025 0.649841 67.3633 0.649841H64.0442C64.005 0.649841 63.9658 0.688715 63.9658 0.727588V15.6808C63.9658 15.7197 64.005 15.7586 64.0442 15.7586H66.2264C66.2656 15.7586 66.3048 15.7197 66.3048 15.6808V4.31688C66.3048 4.22618 66.4355 4.21322 66.4616 4.29097L68.2649 10.1867L68.3956 10.6014C68.4086 10.6403 68.4348 10.6532 68.474 10.6532H70.1466C70.1858 10.6532 70.2119 10.6273 70.225 10.6014L70.3556 10.1867L72.1589 4.29097C72.185 4.20026 72.3157 4.22618 72.3157 4.31688V15.6808C72.3157 15.7197 72.3549 15.7586 72.3941 15.7586H74.5763C74.6155 15.7586 74.6547 15.7197 74.6547 15.6808V0.727588C74.6547 0.688715 74.6155 0.649841 74.5763 0.649841H71.2573Z" fill="white"/>
<path id="Vector_4" d="M43.11 0.649841H39.0462H36.864H32.8001C32.7609 0.649841 32.7217 0.688715 32.7217 0.727588V2.5935C32.7217 2.63238 32.7609 2.67125 32.8001 2.67125H36.7856V15.6808C36.7856 15.7197 36.8248 15.7586 36.864 15.7586H39.0462C39.0854 15.7586 39.1246 15.7197 39.1246 15.6808V2.67125H43.11C43.1492 2.67125 43.1884 2.63238 43.1884 2.5935V0.727588C43.1884 0.688715 43.1623 0.649841 43.11 0.649841Z" fill="white"/>
<path id="Vector_5" d="M55.9815 15.7586H57.9678C58.02 15.7586 58.0592 15.7068 58.0462 15.6549L53.9431 0.649853C53.93 0.61098 53.9039 0.598022 53.8647 0.598022H53.1068H51.7739H51.016C50.9768 0.598022 50.9507 0.623938 50.9376 0.649853L46.8346 15.6549C46.8215 15.7068 46.8607 15.7586 46.913 15.7586H48.8992C48.9384 15.7586 48.9645 15.7327 48.9776 15.7068L50.1667 11.34C50.1797 11.3011 50.2059 11.2882 50.2451 11.2882H54.6356C54.6748 11.2882 54.701 11.3141 54.714 11.34L55.9032 15.7068C55.9162 15.7327 55.9554 15.7586 55.9815 15.7586ZM50.7678 9.15013L52.362 3.30619C52.3881 3.22844 52.4926 3.22844 52.5188 3.30619L54.113 9.15013C54.126 9.20196 54.0868 9.2538 54.0345 9.2538H50.8462C50.7939 9.2538 50.7547 9.20196 50.7678 9.15013Z" fill="white"/>
<path id="Vector_6" d="M89.8507 15.7586H91.8369C91.8892 15.7586 91.9284 15.7068 91.9153 15.6549L87.8122 0.649853C87.7991 0.61098 87.773 0.598022 87.7338 0.598022H86.9759H85.6431H84.8852C84.846 0.598022 84.8198 0.623938 84.8068 0.649853L80.7037 15.6549C80.6906 15.7068 80.7298 15.7586 80.7821 15.7586H82.7683C82.8075 15.7586 82.8336 15.7327 82.8467 15.7068L84.0358 11.34C84.0489 11.3011 84.075 11.2882 84.1142 11.2882H88.5048C88.544 11.2882 88.5701 11.3141 88.5832 11.34L89.7723 15.7068C89.7853 15.7327 89.8115 15.7586 89.8507 15.7586ZM84.6369 9.15013L86.2311 3.30619C86.2572 3.22844 86.3618 3.22844 86.3879 3.30619L87.9821 9.15013C87.9952 9.20196 87.956 9.2538 87.9037 9.2538H84.7153C84.663 9.2538 84.6238 9.20196 84.6369 9.15013Z" fill="white"/>
<path id="Vector_7" d="M20.1378 13.5428V8.90391C20.1378 8.86503 20.177 8.82616 20.2162 8.82616H26.0311C26.0703 8.82616 26.1095 8.78729 26.1095 8.74841V6.8825C26.1095 6.84362 26.0703 6.80475 26.0311 6.80475H20.2162C20.177 6.80475 20.1378 6.76588 20.1378 6.727V2.76194C20.1378 2.72306 20.177 2.68419 20.2162 2.68419H26.8282C26.8674 2.68419 26.9066 2.64532 26.9066 2.60644V0.740527C26.9066 0.701654 26.8674 0.662781 26.8282 0.662781H20.1378H17.8772C17.838 0.662781 17.7988 0.701654 17.7988 0.740527V2.68419V6.81771V8.83912V13.6335V15.6808C17.7988 15.7197 17.838 15.7586 17.8772 15.7586H20.1378H27.1026C27.1418 15.7586 27.181 15.7197 27.181 15.6808V13.7112C27.181 13.6724 27.1418 13.6335 27.1026 13.6335H20.2032C20.164 13.6205 20.1378 13.5946 20.1378 13.5428Z" fill="white"/>
<path id="Vector_8" d="M124.609 15.629L117.057 7.8932C117.031 7.86729 117.031 7.81546 117.057 7.78954L123.852 0.792358C123.904 0.740527 123.865 0.662781 123.799 0.662781H121.016C120.99 0.662781 120.977 0.675739 120.964 0.688696L115.201 6.62334C115.149 6.67517 115.07 6.6363 115.07 6.57151V0.740527C115.07 0.701654 115.031 0.662781 114.992 0.662781H112.81C112.771 0.662781 112.731 0.701654 112.731 0.740527V15.6938C112.731 15.7326 112.771 15.7715 112.81 15.7715H114.992C115.031 15.7715 115.07 15.7326 115.07 15.6938V9.11123C115.07 9.04644 115.162 9.00757 115.201 9.0594L121.735 15.7456C121.748 15.7586 121.774 15.7715 121.787 15.7715H124.57C124.623 15.7586 124.662 15.6679 124.609 15.629Z" fill="white"/>
</g>
</svg>
