<svg width="40" height="42" viewBox="0 0 40 42" fill="none" xmlns="http://www.w3.org/2000/svg">
<g id="Solar">
<path id="Polygon 3" d="M19.4 1.34641C19.7713 1.13205 20.2287 1.13205 20.6 1.34641L36.7205 10.6536C37.0918 10.8679 37.3205 11.2641 37.3205 11.6928V30.3072C37.3205 30.7359 37.0918 31.1321 36.7205 31.3464L20.6 40.6536C20.2287 40.868 19.7713 40.868 19.4 40.6536L3.27949 31.3464C2.90821 31.132 2.67949 30.7359 2.67949 30.3072V11.6928C2.67949 11.2641 2.90821 10.8679 3.27949 10.6536L19.4 1.34641Z" fill="url(#paint0_radial_43_10090)" stroke="#848C96" stroke-width="1.2"/>
<g id="Group 2">
<path id="Vector" d="M13.0384 14.0403C13.0384 14.0407 13.0388 14.0403 13.0384 14.0403C12.2699 14.8095 12.2696 16.0565 13.0384 16.8265C13.8073 17.5929 15.0553 17.5929 15.8218 16.8265C16.5906 16.0576 16.5906 14.8113 15.8218 14.0424C15.0553 13.2718 13.8077 13.2718 13.0384 14.0403ZM20.1671 18.9499C18.9577 18.9499 17.9171 19.9589 17.9487 21.1999C17.9487 22.4409 18.9577 23.4499 20.1987 23.4183C21.4397 23.3866 22.4487 22.4409 22.4487 21.1999C22.4171 19.9589 21.4397 18.9499 20.1671 18.9499ZM24.9729 18.8128C25.6318 18.1536 25.6311 17.0859 24.9722 16.4267C24.3131 15.7676 23.2454 15.7672 22.5862 16.4261C21.927 17.0853 21.9267 18.1537 22.5858 18.8129C23.2432 19.4737 24.312 19.4737 24.9729 18.8128ZM27.36 25.5733C26.5912 24.8045 25.3445 24.8045 24.5757 25.5732C23.8068 26.3419 23.8068 27.5887 24.5755 28.3576C25.3443 29.1264 26.591 29.1264 27.3599 28.3576C27.3599 28.3576 27.3599 28.3576 27.3599 28.3576C28.1264 27.5913 28.1264 26.3433 27.36 25.5733Z" fill="#848C96"/>
<path id="Vector_2" opacity="0.4" d="M24.9733 18.8129C24.6014 19.1848 24.1008 19.323 23.6149 19.2748C24.4583 20.7749 24.2607 22.7096 22.9856 23.9541C21.4563 25.5122 18.9532 25.5344 17.3958 24.0053C15.8383 22.4761 15.8116 19.973 17.3409 18.4472C18.5992 17.1654 20.5637 16.8916 22.1222 17.7828C22.0745 17.2976 22.2128 16.7995 22.5845 16.4279C22.6584 16.3539 22.7513 16.319 22.8345 16.2617C22.0098 15.8216 21.1101 15.5758 20.1989 15.5758C17.0948 15.5753 14.5741 18.0922 14.5745 21.2C14.5747 24.3064 17.0931 26.7933 20.1995 26.7933C21.6912 26.7932 23.1213 26.2002 24.1756 25.1456C25.9693 23.3519 26.2734 20.6596 25.1379 18.5327C25.0823 18.6476 25.0472 18.739 24.9733 18.8129ZM23.0433 27.9359C20.3011 29.0908 17.1335 28.4731 15.0276 26.3704C12.5815 23.9246 12.2401 20.1653 13.9905 17.3458C13.4034 17.2203 12.9123 16.823 12.6623 16.2781C10.3782 19.7684 10.7681 24.4976 13.8344 27.5316C16.5102 30.2144 20.5809 30.9266 24.0087 29.3112C23.9316 29.2478 23.8513 29.1943 23.7791 29.1222C23.444 28.8113 23.1874 28.3929 23.0433 27.9359ZM26.5659 14.8367C23.8902 12.1539 19.8476 11.4416 16.3882 13.0571C16.4651 13.1205 16.5457 13.174 16.6177 13.246C16.9552 13.5879 17.209 14.005 17.3552 14.4628C20.0974 13.3079 23.265 13.9256 25.3709 16.0283C27.817 18.4741 28.1584 22.2333 26.408 25.0529C26.9947 25.1787 27.4862 25.5749 27.7358 26.1202C30.0183 22.6308 29.6315 17.9023 26.5659 14.8367Z" fill="#848C96"/>
</g>
<path id="Star 1" d="M32.787 16.7069C32.7226 16.5328 32.4763 16.5328 32.4118 16.7069L32.1452 17.4276C32.1249 17.4824 32.0817 17.5255 32.027 17.5458L31.3063 17.8125C31.1322 17.8769 31.1322 18.1232 31.3063 18.1876L32.027 18.4543C32.0817 18.4745 32.1249 18.5177 32.1452 18.5725L32.4118 19.2931C32.4763 19.4673 32.7226 19.4673 32.787 19.2931L33.0537 18.5725C33.0739 18.5177 33.1171 18.4745 33.1718 18.4543L33.8925 18.1876C34.0666 18.1232 34.0666 17.8769 33.8925 17.8125L33.1718 17.5458C33.1171 17.5255 33.0739 17.4824 33.0537 17.4276L32.787 16.7069Z" fill="#848C96"/>
<path id="Star 2" d="M7.49515 17.6535C7.46294 17.5664 7.3398 17.5664 7.30758 17.6535L7.14723 18.0868C7.13711 18.1142 7.11552 18.1358 7.08815 18.1459L6.65482 18.3063C6.56776 18.3385 6.56776 18.4616 6.65482 18.4938L7.08815 18.6542C7.11552 18.6643 7.13711 18.6859 7.14723 18.7133L7.30758 19.1466C7.3398 19.2337 7.46294 19.2337 7.49515 19.1466L7.6555 18.7133C7.66563 18.6859 7.68721 18.6643 7.71458 18.6542L8.14792 18.4938C8.23498 18.4616 8.23498 18.3385 8.14792 18.3063L7.71458 18.1459C7.68721 18.1358 7.66563 18.1142 7.6555 18.0868L7.49515 17.6535Z" fill="#848C96"/>
<path id="Star 3" d="M32.294 22.4533C32.2618 22.3662 32.1386 22.3662 32.1064 22.4533L31.9461 22.8866C31.9359 22.914 31.9144 22.9356 31.887 22.9457L31.4536 23.1061C31.3666 23.1383 31.3666 23.2614 31.4536 23.2936L31.887 23.454C31.9144 23.4641 31.9359 23.4857 31.9461 23.5131L32.1064 23.9464C32.1386 24.0335 32.2618 24.0335 32.294 23.9464L32.4543 23.5131C32.4645 23.4857 32.486 23.4641 32.5134 23.454L32.9467 23.2936C33.0338 23.2614 33.0338 23.1383 32.9467 23.1061L32.5134 22.9457C32.486 22.9356 32.4645 22.914 32.4543 22.8866L32.294 22.4533Z" fill="#848C96"/>
<path id="Star 4" d="M13.0938 9.25345C13.0616 9.16639 12.9384 9.16639 12.9062 9.25345L12.7459 9.68679C12.7357 9.71416 12.7142 9.73574 12.6868 9.74587L12.2535 9.90621C12.1664 9.93843 12.1664 10.0616 12.2535 10.0938L12.6868 10.2541C12.7142 10.2643 12.7357 10.2858 12.7459 10.3132L12.9062 10.7465C12.9384 10.8336 13.0616 10.8336 13.0938 10.7465L13.2541 10.3132C13.2643 10.2858 13.2858 10.2643 13.3132 10.2541L13.7465 10.0938C13.8336 10.0616 13.8336 9.93843 13.7465 9.90621L13.3132 9.74587C13.2858 9.73574 13.2643 9.71416 13.2541 9.68679L13.0938 9.25345Z" fill="#848C96"/>
<path id="Star 5" d="M17.4932 32.8535C17.461 32.7665 17.3378 32.7665 17.3056 32.8535L17.1453 33.2869C17.1352 33.3143 17.1136 33.3358 17.0862 33.346L16.6529 33.5063C16.5658 33.5385 16.5658 33.6617 16.6529 33.6939L17.0862 33.8542C17.1136 33.8644 17.1352 33.8859 17.1453 33.9133L17.3056 34.3466C17.3378 34.4337 17.461 34.4337 17.4932 34.3466L17.6535 33.9133C17.6637 33.8859 17.6853 33.8644 17.7126 33.8542L18.146 33.6939C18.233 33.6617 18.233 33.5385 18.146 33.5063L17.7126 33.346C17.6853 33.3358 17.6637 33.3143 17.6535 33.2869L17.4932 32.8535Z" fill="#848C96"/>
<path id="Subtract" fill-rule="evenodd" clip-rule="evenodd" d="M8.68491 12.0259C8.71755 11.9511 8.66338 11.8622 8.58366 11.8797C8.46601 11.9055 8.35027 11.9496 8.2404 12.013C7.66645 12.3444 7.4698 13.0783 7.80117 13.6522C8.13254 14.2262 8.86645 14.4228 9.4404 14.0915C9.5505 14.0279 9.64671 13.9495 9.72798 13.8603C9.78293 13.8 9.73298 13.7086 9.65187 13.6996C9.28586 13.6586 8.94346 13.4503 8.74518 13.1068C8.54704 12.7636 8.53769 12.3632 8.68491 12.0259Z" fill="#848C96"/>
</g>
<defs>
<radialGradient id="paint0_radial_43_10090" cx="0" cy="0" r="1" gradientUnits="userSpaceOnUse" gradientTransform="translate(20 21) rotate(90) scale(20)">
<stop stop-color="#FEFEFE"/>
<stop offset="1" stop-color="#D4D4D4"/>
</radialGradient>
</defs>
</svg>
